<svg width="124" height="37" viewBox="0 0 124 37" fill="none" xmlns="http://www.w3.org/2000/svg">
<path fill-rule="evenodd" clip-rule="evenodd" d="M5.79207 0C3.05743 0 0.840576 2.21686 0.840576 4.9515V31.6305C0.840576 34.3651 3.05744 36.582 5.79208 36.582H119.048C121.783 36.582 124 34.3651 124 31.6305V4.9515C124 2.21686 121.783 0 119.048 0H5.79207Z" fill="url(#paint0_linear)"/>
<path fill-rule="evenodd" clip-rule="evenodd" d="M34.11 17.607C34.088 15.1623 36.1117 13.973 36.2042 13.9176C35.0581 12.2467 33.2817 12.0183 32.6574 12.0001C31.1655 11.8431 29.7182 12.8929 28.9582 12.8929C28.183 12.8929 27.0126 12.0153 25.7512 12.0411C24.128 12.0661 22.6095 13.0059 21.7767 14.4653C20.0579 17.4409 21.3398 21.8137 22.9865 24.2189C23.8102 25.3969 24.7728 26.7121 26.0327 26.6658C27.2652 26.615 27.7256 25.88 29.2131 25.88C30.6868 25.88 31.1192 26.6658 32.4041 26.6363C33.7269 26.615 34.5598 25.453 35.3547 24.2644C36.3066 22.9143 36.6889 21.5846 36.7041 21.5164C36.673 21.5057 34.135 20.5371 34.11 17.607Z" fill="white"/>
<path fill-rule="evenodd" clip-rule="evenodd" d="M31.6829 10.4179C32.3458 9.58889 32.7994 8.46099 32.6735 7.31641C31.714 7.35888 30.514 7.9801 29.823 8.79094C29.2117 9.50545 28.6655 10.6766 28.8066 11.7779C29.8845 11.8583 30.9911 11.2341 31.6829 10.4179Z" fill="white"/>
<path fill-rule="evenodd" clip-rule="evenodd" d="M51.9476 26.4965H50.225L49.2814 23.5315H46.0017L45.1028 26.4965H43.4258L46.6752 16.4023H48.6822L51.9476 26.4965ZM48.9975 22.2878L48.1442 19.652C48.0539 19.3827 47.8847 18.7486 47.6352 17.7504H47.6049C47.5055 18.1797 47.3454 18.8138 47.1255 19.652L46.2873 22.2878H48.9975Z" fill="white"/>
<path fill-rule="evenodd" clip-rule="evenodd" d="M60.3043 22.7681C60.3043 24.006 59.9698 24.9844 59.3008 25.7027C58.7016 26.3422 57.9575 26.6615 57.0692 26.6615C56.1105 26.6615 55.4218 26.3171 55.0023 25.6284H54.972V29.4627H53.3548V21.6144C53.3548 20.8362 53.3344 20.0375 53.2949 19.2183H54.7171L54.8074 20.372H54.8377C55.377 19.5027 56.1954 19.0688 57.2938 19.0688C58.1524 19.0688 58.8692 19.4079 59.4426 20.0868C60.0176 20.7664 60.3043 21.6599 60.3043 22.7681ZM58.6567 22.8271C58.6567 22.1187 58.4974 21.5346 58.1773 21.075C57.8276 20.5956 57.3581 20.3559 56.7695 20.3559C56.3706 20.3559 56.008 20.4894 55.6841 20.7526C55.3595 21.0181 55.1471 21.3647 55.0477 21.794C54.9977 21.9943 54.9726 22.1581 54.9726 22.2871V23.5007C54.9726 24.0301 55.1349 24.4769 55.4596 24.8417C55.7842 25.2066 56.206 25.3886 56.7248 25.3886C57.3339 25.3886 57.8079 25.1535 58.147 24.6847C58.4868 24.2152 58.6567 23.5963 58.6567 22.8271Z" fill="white"/>
<path fill-rule="evenodd" clip-rule="evenodd" d="M68.6761 22.7681C68.6761 24.006 68.3416 24.9844 67.6718 25.7027C67.0734 26.3422 66.3293 26.6615 65.441 26.6615C64.4823 26.6615 63.7936 26.3171 63.3749 25.6284H63.3445V29.4627H61.7274V21.6144C61.7274 20.8362 61.7069 20.0375 61.6675 19.2183H63.0897L63.1799 20.372H63.2103C63.7488 19.5027 64.5672 19.0688 65.6663 19.0688C66.5242 19.0688 67.241 19.4079 67.8159 20.0868C68.3886 20.7664 68.6761 21.6599 68.6761 22.7681ZM67.0289 22.8271C67.0289 22.1187 66.8688 21.5346 66.5487 21.075C66.1991 20.5956 65.7311 20.3559 65.1417 20.3559C64.742 20.3559 64.3802 20.4894 64.0555 20.7526C63.7309 21.0181 63.5193 21.3647 63.4199 21.794C63.3706 21.9943 63.3448 22.1581 63.3448 22.2871V23.5007C63.3448 24.0301 63.5071 24.4769 63.8302 24.8417C64.1549 25.2058 64.5766 25.3886 65.0969 25.3886C65.706 25.3886 66.1801 25.1535 66.5191 24.6847C66.859 24.2152 67.0289 23.5963 67.0289 22.8271Z" fill="white"/>
<path fill-rule="evenodd" clip-rule="evenodd" d="M78.0357 23.666C78.0357 24.5246 77.7376 25.2232 77.1391 25.7625C76.4815 26.3519 75.566 26.6462 74.3895 26.6462C73.3033 26.6462 72.4326 26.4368 71.7734 26.0174L72.1481 24.6695C72.8581 25.0988 73.6371 25.3142 74.4859 25.3142C75.0949 25.3142 75.569 25.1762 75.9096 24.9016C76.2486 24.627 76.4178 24.2584 76.4178 23.7987C76.4178 23.3891 76.2782 23.044 75.9983 22.7641C75.7199 22.4842 75.255 22.2241 74.6057 21.9836C72.8384 21.3245 71.9555 20.3589 71.9555 19.0892C71.9555 18.2594 72.2649 17.579 72.8846 17.0496C73.5021 16.5194 74.3258 16.2546 75.3559 16.2546C76.2744 16.2546 77.0375 16.4147 77.6465 16.734L77.2423 18.0523C76.6734 17.7428 76.0302 17.5881 75.3104 17.5881C74.7415 17.5881 74.297 17.7284 73.9784 18.0075C73.7091 18.2571 73.5741 18.5613 73.5741 18.9215C73.5741 19.3205 73.7281 19.6505 74.0376 19.9099C74.3068 20.1496 74.7961 20.409 75.506 20.6889C76.3745 21.0385 77.0124 21.4474 77.4228 21.9161C77.8316 22.3834 78.0357 22.9682 78.0357 23.666Z" fill="white"/>
<path fill-rule="evenodd" clip-rule="evenodd" d="M83.3829 20.4317H81.6004V23.9656C81.6004 24.8644 81.9144 25.3135 82.544 25.3135C82.833 25.3135 83.0727 25.2885 83.2623 25.2384L83.3071 26.4664C82.9885 26.5855 82.569 26.6454 82.0495 26.6454C81.4108 26.6454 80.9117 26.4505 80.5514 26.0614C80.1926 25.6715 80.0121 25.0177 80.0121 24.0991V20.4302H78.9502V19.2166H80.0121V17.8839L81.6004 17.4045V19.2166H83.3829V20.4317Z" fill="white"/>
<path fill-rule="evenodd" clip-rule="evenodd" d="M91.4251 22.7976C91.4251 23.9164 91.105 24.835 90.4663 25.5533C89.7966 26.2928 88.9076 26.6615 87.7994 26.6615C86.7315 26.6615 85.8812 26.3072 85.2471 25.5988C84.613 24.8904 84.2959 23.9961 84.2959 22.9182C84.2959 21.7903 84.6221 20.8665 85.2766 20.1482C85.9297 19.4291 86.8111 19.0696 87.9193 19.0696C88.9873 19.0696 89.8466 19.4238 90.4952 20.133C91.1156 20.821 91.4251 21.7092 91.4251 22.7976ZM89.7476 22.8499C89.7476 22.1786 89.6043 21.6029 89.3138 21.1228C88.9747 20.5418 88.49 20.252 87.862 20.252C87.2119 20.252 86.7182 20.5425 86.3791 21.1228C86.0886 21.6037 85.9452 22.1885 85.9452 22.8802C85.9452 23.5515 86.0886 24.1272 86.3791 24.6066C86.7288 25.1876 87.2173 25.4774 87.8476 25.4774C88.465 25.4774 88.9497 25.1816 89.2994 24.5914C89.5974 24.1022 89.7476 23.5204 89.7476 22.8499Z" fill="white"/>
<path fill-rule="evenodd" clip-rule="evenodd" d="M96.6813 20.6405C96.5212 20.6109 96.3506 20.5957 96.1716 20.5957C95.6027 20.5957 95.1627 20.8104 94.8533 21.2405C94.584 21.6197 94.449 22.0991 94.449 22.6778V26.4969H92.8326L92.8478 21.5105C92.8478 20.6716 92.8273 19.9078 92.7871 19.219H94.1957L94.2548 20.6116H94.2996C94.4702 20.133 94.7395 19.7477 95.1081 19.4587C95.4684 19.1986 95.8575 19.0688 96.277 19.0688C96.4264 19.0688 96.5614 19.0795 96.6813 19.0984V20.6405Z" fill="white"/>
<path fill-rule="evenodd" clip-rule="evenodd" d="M103.914 22.513C103.914 22.8027 103.895 23.0469 103.855 23.2464H99.0033C99.0222 23.9655 99.2566 24.5154 99.7072 24.8947C100.116 25.2337 100.645 25.4036 101.294 25.4036C102.012 25.4036 102.668 25.2891 103.257 25.0593L103.51 26.1819C102.822 26.4822 102.008 26.6316 101.07 26.6316C99.9416 26.6316 99.0556 26.2994 98.4109 25.6357C97.7677 24.972 97.4453 24.0808 97.4453 22.9628C97.4453 21.8652 97.7449 20.9512 98.3449 20.2223C98.9729 19.444 99.8217 19.0549 100.89 19.0549C101.939 19.0549 102.733 19.444 103.272 20.2223C103.699 20.8405 103.914 21.605 103.914 22.513ZM102.372 22.0933C102.382 21.6139 102.277 21.1998 102.058 20.8501C101.778 20.4003 101.348 20.1758 100.769 20.1758C100.24 20.1758 99.8103 20.395 99.4819 20.8349C99.2126 21.1846 99.0526 21.6041 99.0033 22.0925H102.372V22.0933Z" fill="white"/>
<path d="M46.2994 12.877C47.092 12.877 47.5981 12.5904 48.031 12.121L47.5493 11.6332C47.1835 11.9746 46.8421 12.1819 46.3238 12.1819C45.5068 12.1819 44.9154 11.5052 44.9154 10.6699V10.6577C44.9154 9.8224 45.5129 9.15783 46.3177 9.15783C46.8116 9.15783 47.1713 9.36513 47.5188 9.68217L48.0005 9.12735C47.592 8.73714 47.1164 8.46277 46.3238 8.46277C45.0374 8.46277 44.1289 9.45658 44.1289 10.6699V10.6821C44.1289 11.9076 45.0556 12.877 46.2994 12.877Z" fill="white"/>
<path d="M50.2106 12.877C51.2044 12.877 51.9361 12.1088 51.9361 11.2003V11.1881C51.9361 10.2675 51.2166 9.51755 50.2228 9.51755C49.2351 9.51755 48.5035 10.2797 48.5035 11.2003V11.2125C48.5035 12.1271 49.229 12.877 50.2106 12.877ZM50.2228 12.2307C49.6558 12.2307 49.2412 11.7612 49.2412 11.2003V11.1881C49.2412 10.6272 49.6192 10.1638 50.2106 10.1638C50.7898 10.1638 51.1983 10.6333 51.1983 11.2003V11.2125C51.1983 11.7673 50.8264 12.2307 50.2228 12.2307Z" fill="white"/>
<path d="M52.6813 12.8038H53.4251V10.9869C53.4251 10.4931 53.6995 10.1882 54.1141 10.1882C54.5287 10.1882 54.7665 10.4626 54.7665 10.9686V12.8038H55.5042V10.9869C55.5042 10.4687 55.7847 10.1882 56.1932 10.1882C56.6077 10.1882 56.8455 10.4626 56.8455 10.9747V12.8038H57.5833V10.7491C57.5833 9.96263 57.1626 9.51755 56.4553 9.51755C55.9676 9.51755 55.6322 9.74314 55.3701 10.0846C55.1993 9.74314 54.8701 9.51755 54.4067 9.51755C53.9129 9.51755 53.6324 9.78582 53.4251 10.0724V9.58462H52.6813V12.8038Z" fill="white"/>
<path d="M58.487 9.09076H59.2796V8.38961H58.487V9.09076ZM58.5113 12.8038H59.2552V9.58462H58.5113V12.8038Z" fill="white"/>
<path d="M60.2132 12.8038H60.957V10.9869C60.957 10.4809 61.2497 10.1882 61.6826 10.1882C62.1216 10.1882 62.3716 10.4687 62.3716 10.9747V12.8038H63.1093V10.7491C63.1093 9.99922 62.6947 9.51755 61.9631 9.51755C61.457 9.51755 61.1704 9.77972 60.957 10.0785V9.58462H60.2132V12.8038Z" fill="white"/>
<path d="M65.433 13.7915C66.0183 13.7915 66.4634 13.6513 66.756 13.3587C67.0304 13.0843 67.1645 12.6819 67.1645 12.1454V9.58462H66.4268V10.0663C66.1768 9.76753 65.8415 9.51755 65.2988 9.51755C64.5428 9.51755 63.8355 10.0785 63.8355 11.0296V11.0418C63.8355 11.9868 64.5367 12.5478 65.2988 12.5478C65.8293 12.5478 66.1646 12.3039 66.4329 11.9624V12.2063C66.4329 12.8587 66.0731 13.1879 65.4147 13.1879C64.9757 13.1879 64.616 13.066 64.2684 12.8526L63.9941 13.4074C64.4148 13.6635 64.8964 13.7915 65.433 13.7915ZM65.4939 11.9198C64.9879 11.9198 64.5794 11.56 64.5794 11.0357V11.0235C64.5794 10.4931 64.9818 10.1455 65.4939 10.1455C66.0061 10.1455 66.439 10.5053 66.439 11.0235V11.0357C66.439 11.56 66.0061 11.9198 65.4939 11.9198Z" fill="white"/>
<path d="M71.0221 12.8648C71.6928 12.8648 72.2171 12.5295 72.2171 11.8527V11.8405C72.2171 11.2613 71.6806 11.0479 71.2172 10.9016C70.8392 10.7857 70.4917 10.676 70.4917 10.4443V10.4321C70.4917 10.2553 70.6563 10.1151 70.9428 10.1151C71.2111 10.1151 71.5403 10.2309 71.8513 10.4199L72.1439 9.89557C71.8025 9.66998 71.3696 9.52975 70.9611 9.52975C70.3209 9.52975 69.8149 9.90166 69.8149 10.5175V10.5297C69.8149 11.1394 70.3514 11.3406 70.8209 11.4686C71.1989 11.5844 71.5403 11.6759 71.5403 11.9198V11.932C71.5403 12.1454 71.3574 12.2795 71.0404 12.2795C70.7051 12.2795 70.3453 12.1454 69.9856 11.8832L69.6564 12.3831C70.0649 12.7063 70.5587 12.8648 71.0221 12.8648Z" fill="white"/>
<path d="M74.5033 12.877C75.4972 12.877 76.2288 12.1088 76.2288 11.2003V11.1881C76.2288 10.2675 75.5093 9.51755 74.5155 9.51755C73.5278 9.51755 72.7962 10.2797 72.7962 11.2003V11.2125C72.7962 12.1271 73.5217 12.877 74.5033 12.877ZM74.5155 12.2307C73.9485 12.2307 73.5339 11.7612 73.5339 11.2003V11.1881C73.5339 10.6272 73.9119 10.1638 74.5033 10.1638C75.0826 10.1638 75.4911 10.6333 75.4911 11.2003V11.2125C75.4911 11.7673 75.1191 12.2307 74.5155 12.2307Z" fill="white"/>
<path d="M78.5104 12.877C79.5043 12.877 80.2359 12.1088 80.2359 11.2003V11.1881C80.2359 10.2675 79.5165 9.51755 78.5226 9.51755C77.5349 9.51755 76.8033 10.2797 76.8033 11.2003V11.2125C76.8033 12.1271 77.5288 12.877 78.5104 12.877ZM78.5226 12.2307C77.9556 12.2307 77.541 11.7612 77.541 11.2003V11.1881C77.541 10.6272 77.919 10.1638 78.5104 10.1638C79.0897 10.1638 79.4982 10.6333 79.4982 11.2003V11.2125C79.4982 11.7673 79.1262 12.2307 78.5226 12.2307Z" fill="white"/>
<path d="M80.9811 12.8038H81.7249V10.9869C81.7249 10.4809 82.0176 10.1882 82.4505 10.1882C82.8895 10.1882 83.1395 10.4687 83.1395 10.9747V12.8038H83.8772V10.7491C83.8772 9.99922 83.4626 9.51755 82.731 9.51755C82.2249 9.51755 81.9383 9.77972 81.7249 10.0785V9.58462H80.9811V12.8038Z" fill="white"/>
<path d="M87.6751 12.8587C87.9617 12.8587 88.1507 12.7977 88.3397 12.6941V12.0905C88.1934 12.1637 88.041 12.2002 87.8824 12.2002C87.6325 12.2002 87.4861 12.0844 87.4861 11.7978V10.2187H88.3519V9.58462H87.4861V8.70056H86.7484V9.58462H86.3399V10.2187H86.7484V11.9137C86.7484 12.6209 87.1325 12.8587 87.6751 12.8587Z" fill="white"/>
<path d="M90.5437 12.877C91.5375 12.877 92.2691 12.1088 92.2691 11.2003V11.1881C92.2691 10.2675 91.5497 9.51755 90.5559 9.51755C89.5682 9.51755 88.8365 10.2797 88.8365 11.2003V11.2125C88.8365 12.1271 89.5621 12.877 90.5437 12.877ZM90.5559 12.2307C89.9889 12.2307 89.5743 11.7612 89.5743 11.2003V11.1881C89.5743 10.6272 89.9523 10.1638 90.5437 10.1638C91.1229 10.1638 91.5314 10.6333 91.5314 11.2003V11.2125C91.5314 11.7673 91.1595 12.2307 90.5559 12.2307Z" fill="white"/>
<path d="M95.9275 12.8587C96.2141 12.8587 96.4031 12.7977 96.5921 12.6941V12.0905C96.4458 12.1637 96.2933 12.2002 96.1348 12.2002C95.8848 12.2002 95.7385 12.0844 95.7385 11.7978V10.2187H96.6043V9.58462H95.7385V8.70056H95.0008V9.58462H94.5923V10.2187H95.0008V11.9137C95.0008 12.6209 95.3849 12.8587 95.9275 12.8587Z" fill="white"/>
<path d="M97.3489 12.8038H98.0928V10.9869C98.0928 10.4809 98.3854 10.1882 98.8183 10.1882C99.2573 10.1882 99.5073 10.4687 99.5073 10.9747V12.8038H100.245V10.7491C100.245 9.99922 99.8304 9.51755 99.0988 9.51755C98.5927 9.51755 98.3062 9.77972 98.0928 10.0785V8.35303H97.3489V12.8038Z" fill="white"/>
<path d="M102.611 12.877C103.203 12.877 103.617 12.6392 103.928 12.2734L103.495 11.8893C103.233 12.1393 102.989 12.2734 102.624 12.2734C102.142 12.2734 101.776 11.9868 101.697 11.4564H104.062C104.069 11.3832 104.075 11.3162 104.075 11.2491C104.075 10.3224 103.556 9.51755 102.532 9.51755C101.611 9.51755 100.959 10.2675 100.959 11.1942V11.2064C100.959 12.2002 101.685 12.877 102.611 12.877ZM101.691 10.9686C101.758 10.4626 102.069 10.1212 102.526 10.1212C103.014 10.1212 103.294 10.4992 103.343 10.9686H101.691Z" fill="white"/>
<defs>
<linearGradient id="paint0_linear" x1="62.4203" y1="0" x2="62.4203" y2="36.582" gradientUnits="userSpaceOnUse">
<stop/>
<stop offset="1"/>
</linearGradient>
</defs>
</svg>
