<svg width="12" height="12" viewBox="0 0 12 12" fill="none" xmlns="http://www.w3.org/2000/svg">
<path fill-rule="evenodd" clip-rule="evenodd" d="M10.2005 1.20024H11.4005C11.7005 1.20024 12.0005 1.44024 12.0005 1.80024V11.4002C12.0005 11.7602 11.7005 12.0002 11.4005 12.0002H0.600488C0.240488 12.0002 0.000488281 11.7602 0.000488281 11.4002V1.80024C0.000488281 1.44024 0.240488 1.20024 0.600488 1.20024H1.80049V0.600244C1.80049 0.240244 2.04049 0.000244141 2.40049 0.000244141C2.76049 0.000244141 3.00049 0.240244 3.00049 0.600244V1.20024H9.00049V0.600244C9.00049 0.240244 9.24049 0.000244141 9.60049 0.000244141C9.96049 0.000244141 10.2005 0.240244 10.2005 0.600244V1.20024ZM1.20049 10.8002H10.8005V3.60024H1.20049V10.8002ZM4.20049 5.40027H3.00049V6.60027H4.20049V5.40027ZM6.60051 5.40027H5.40051V6.60027H6.60051V5.40027ZM7.80042 5.40027H9.00041V6.60027H7.80042V5.40027ZM4.20049 7.80023H3.00049V9.00023H4.20049V7.80023ZM5.40051 7.80023H6.60051V9.00023H5.40051V7.80023ZM9.00041 7.80023H7.80042V9.00023H9.00041V7.80023Z" fill="#A1AAB4"/>
</svg>
