<svg width="88" height="49" viewBox="0 0 88 49" fill="none" xmlns="http://www.w3.org/2000/svg">
<path fill-rule="evenodd" clip-rule="evenodd" d="M18.0341 24.5315L20.7921 13.2093C20.7921 11.9028 20.6469 10.5964 20.3566 9.58033C19.776 7.83844 18.7599 6.53202 17.3083 5.80624C13.3891 3.91919 8.30855 7.69328 5.69572 14.2254C3.08289 20.7575 4.24415 27.725 8.01824 29.6121C11.2117 31.2088 15.2761 29.0314 18.0341 24.5315ZM23.8404 1.1612H27.9048L19.9212 34.2571H15.7116L16.4374 31.3539C12.2278 35.128 7.58277 36.2893 4.09899 33.8216C-0.981522 30.1927 -1.41699 20.1768 3.22804 11.3222C7.87308 2.46762 15.8567 -1.74195 20.9373 1.88699C21.8082 2.46762 22.6791 3.33856 23.2598 4.35466L23.8404 1.1612Z" fill="#0062AD"/>
<path fill-rule="evenodd" clip-rule="evenodd" d="M78.1293 24.5315L80.8873 13.2093C80.8873 11.9028 80.7422 10.5964 80.4518 9.58033C79.8712 7.83844 78.8551 6.53202 77.4035 5.80624C73.4843 3.91919 68.4038 7.69328 65.7909 14.2254C63.1781 20.7575 64.3394 27.725 68.1135 29.6121C71.3069 31.2088 75.3713 29.0314 78.1293 24.5315ZM83.9356 1.1612H88L80.0164 34.2571H75.8068L76.5326 31.3539C72.323 35.128 67.678 36.2893 64.1942 33.8216C59.1137 30.1927 58.6782 20.1768 63.3233 11.3222C67.9683 2.46762 75.952 -1.74195 81.0325 1.88699C81.9034 2.46762 82.7744 3.33856 83.355 4.35466L83.9356 1.1612Z" fill="#0062AD"/>
<path fill-rule="evenodd" clip-rule="evenodd" d="M34.5819 24.5316L37.0496 13.2093C37.6302 11.9029 38.356 10.5965 39.227 9.58039C40.6785 7.8385 42.2753 6.53209 44.0172 5.8063C48.8073 3.91925 52.146 7.69334 51.7105 14.2254C51.1299 20.7575 46.7751 27.7251 41.985 29.6121C38.2109 31.2088 35.3077 28.8863 34.5819 24.5316ZM40.2431 0H36.1787L24.4209 48.7729H28.6305L33.1303 31.2089C35.4529 34.9829 39.8076 36.1442 44.3075 33.6765C51.1299 30.0476 56.3555 20.0317 55.9201 11.1771C55.4846 2.32252 49.5331 -1.88705 42.7107 1.74189C41.5495 2.32252 40.3882 3.19346 39.227 4.20957L40.2431 0Z" fill="#0062AD"/>
<path d="M78.0478 48.3319V44.1864H78.6445V44.7786C78.8433 44.4825 78.9428 44.2851 79.0422 44.1864C79.1416 44.0877 79.3405 44.0877 79.5394 44.0877C79.7383 44.0877 80.0366 44.1864 80.2354 44.2851L80.0366 44.976C79.8377 44.8773 79.7383 44.7786 79.5394 44.7786C79.3405 44.7786 79.2411 44.7786 79.1416 44.8773C79.0422 44.976 78.9428 45.0747 78.8433 45.2721C78.7439 45.4695 78.7439 45.7656 78.7439 46.0617V48.2332H78.0478V48.3319ZM76.4568 46.2591C76.1585 46.3579 75.8602 46.4566 75.2636 46.5553C74.9653 46.5553 74.7664 46.654 74.667 46.654C74.5676 46.7527 74.4681 46.7527 74.3687 46.8514C74.2692 46.9501 74.2692 47.0488 74.2692 47.1475C74.2692 47.3449 74.3687 47.4436 74.4681 47.641C74.5676 47.7397 74.8659 47.8384 75.0647 47.8384C75.363 47.8384 75.5619 47.7397 75.7608 47.641C75.9597 47.5423 76.1585 47.3449 76.258 47.1475C76.3574 46.9501 76.3574 46.7527 76.3574 46.4566V46.2591H76.4568ZM76.5563 47.8384C76.258 48.0358 76.0591 48.2332 75.7608 48.3319C75.5619 48.4306 75.2636 48.4306 74.9653 48.4306C74.4681 48.4306 74.1698 48.3319 73.8715 48.1345C73.6726 47.9371 73.4738 47.641 73.4738 47.2462C73.4738 47.0488 73.4738 46.8514 73.5732 46.654C73.6726 46.4566 73.7721 46.3579 73.9709 46.2591C74.1698 46.1604 74.2692 46.0617 74.4681 46.0617C74.5676 46.0617 74.7664 45.963 75.0647 45.963C75.6614 45.8643 76.0591 45.8643 76.3574 45.7656C76.3574 45.6669 76.3574 45.5682 76.3574 45.5682C76.3574 45.2721 76.258 45.0747 76.1585 44.976C75.9597 44.7786 75.7608 44.7786 75.363 44.7786C75.0647 44.7786 74.7664 44.8773 74.667 44.976C74.4681 45.0747 74.3687 45.2721 74.3687 45.5682L73.6726 45.4695C73.7721 45.1734 73.8715 44.976 73.9709 44.7786C74.0704 44.5812 74.3687 44.4825 74.5676 44.3838C74.8659 44.2851 75.1642 44.2851 75.4625 44.2851C75.8602 44.2851 76.0591 44.2851 76.3574 44.3838C76.5563 44.4825 76.7552 44.5812 76.8546 44.6799C76.954 44.7786 77.0535 44.976 77.0535 45.1734C77.0535 45.2721 77.0535 45.4695 77.0535 45.8643V46.7527C77.0535 47.4436 77.0535 47.8384 77.0535 47.9371C77.0535 48.1345 77.1529 48.2332 77.2523 48.4306H76.5563C76.6557 48.2332 76.5563 48.0358 76.5563 47.8384ZM71.485 48.3319L69.894 44.1864H70.5901L71.485 46.654C71.5845 46.9501 71.6839 47.1475 71.7833 47.4436C71.8828 47.2462 71.8828 46.9501 72.0816 46.654L72.9766 44.1864H73.6726L72.0816 48.3319H71.485ZM63.729 48.3319V47.7397L66.4137 44.7786C66.1154 44.7786 65.8171 44.7786 65.6183 44.7786H63.9278V44.1864H67.3087V44.6799L65.0216 47.2462L64.6239 47.7397C64.9222 47.7397 65.2205 47.7397 65.5188 47.7397H67.4081V48.3319H63.729ZM62.5357 48.3319V44.1864H63.2318V48.3319H62.5357ZM62.5357 43.4954V42.7058H63.2318V43.4954H62.5357ZM56.1718 48.3319V44.1864H56.7684V44.7786C56.8678 44.5812 57.0667 44.3838 57.2656 44.2851C57.4644 44.1864 57.7628 44.0877 57.9616 44.0877C58.2599 44.0877 58.5582 44.1864 58.7571 44.2851C58.956 44.3838 59.0554 44.5812 59.1549 44.7786C59.4532 44.2851 59.9504 44.0877 60.4475 44.0877C60.8453 44.0877 61.1436 44.1864 61.4419 44.3838C61.6408 44.5812 61.7402 44.976 61.7402 45.4695V48.3319H61.0442V45.7656C61.0442 45.4695 61.0442 45.2721 60.9447 45.1734C60.9447 45.0747 60.8453 44.976 60.7459 44.8773C60.6464 44.7786 60.4475 44.7786 60.3481 44.7786C60.0498 44.7786 59.8509 44.8773 59.6521 45.0747C59.4532 45.2721 59.3537 45.5682 59.3537 45.963V48.3319H58.6577V45.6669C58.6577 45.3708 58.5582 45.1734 58.4588 44.976C58.3594 44.7786 58.1605 44.7786 57.8622 44.7786C57.6633 44.7786 57.4644 44.8773 57.365 44.976C57.1661 45.0747 57.0667 45.2721 56.9673 45.4695C56.8678 45.6669 56.8678 45.963 56.8678 46.3579V48.5293H56.1718V48.3319ZM54.7797 48.3319V44.1864H55.4757V48.3319H54.7797ZM54.7797 43.4954V42.7058H55.4757V43.4954H54.7797ZM52.1943 48.3319V44.1864H52.7909V44.7786C52.9898 44.4825 53.0892 44.2851 53.1887 44.1864C53.2881 44.0877 53.487 44.0877 53.6859 44.0877C53.8847 44.0877 54.183 44.1864 54.3819 44.2851L54.183 44.976C53.9842 44.8773 53.8847 44.7786 53.6859 44.7786C53.487 44.7786 53.3875 44.7786 53.2881 44.8773C53.1887 44.976 53.0892 45.0747 52.9898 45.2721C52.8904 45.4695 52.8904 45.7656 52.8904 46.0617V48.2332H52.1943V48.3319ZM50.8022 46.654H48.5151C48.5151 47.0488 48.6146 47.2462 48.8135 47.4436C49.0123 47.7397 49.3106 47.8384 49.7084 47.8384C50.0067 47.8384 50.305 47.7397 50.5039 47.5423C50.7028 47.3449 50.8022 47.0488 50.8022 46.654ZM51.5977 46.2591C51.5977 46.8514 51.3988 47.4436 51.1005 47.8384C50.8022 48.2332 50.305 48.4306 49.609 48.4306C49.0123 48.4306 48.5151 48.2332 48.2168 47.8384C47.9185 47.4436 47.7197 46.9501 47.7197 46.3579C47.7197 46.3579 47.7197 46.2591 47.7197 46.1604H50.8022C50.8022 45.7656 50.7028 45.4695 50.5039 45.1734C50.305 44.8773 50.0067 44.7786 49.609 44.7786C49.1118 44.7786 48.714 45.0747 48.5151 45.6669L47.8191 45.5682C48.018 44.6799 48.714 44.2851 49.609 44.2851C50.2056 44.2851 50.7028 44.4825 51.1005 44.8773C51.3988 45.0747 51.5977 45.6669 51.5977 46.2591ZM44.4382 46.2591C44.4382 46.7527 44.5377 47.1475 44.6371 47.3449C44.836 47.7397 45.1343 47.8384 45.532 47.8384C45.8304 47.8384 46.1287 47.7397 46.3275 47.4436C46.5264 47.1475 46.6259 46.7527 46.6259 46.2591C46.6259 45.7656 46.5264 45.3708 46.3275 45.0747C46.1287 44.7786 45.8304 44.6799 45.532 44.6799C45.2337 44.6799 44.9354 44.7786 44.7366 45.0747C44.5377 45.3708 44.4382 45.7656 44.4382 46.2591ZM44.4382 48.3319H43.7422V42.7058H44.4382V44.6799C44.7366 44.2851 45.1343 44.0877 45.532 44.0877C45.8304 44.0877 46.0292 44.1864 46.2281 44.2851C46.427 44.3838 46.6258 44.4825 46.8247 44.6799C46.9242 44.8773 47.123 45.0747 47.123 45.3708C47.2225 45.6669 47.2225 45.8643 47.2225 46.1604C47.2225 46.8514 47.0236 47.4436 46.7253 47.8384C46.3275 48.2332 45.9298 48.4306 45.4326 48.4306C44.9354 48.4306 44.5377 48.2332 44.2394 47.8384V48.3319H44.4382ZM42.4495 46.654H40.1625C40.1625 47.0488 40.2619 47.2462 40.4608 47.4436C40.6597 47.7397 40.958 47.8384 41.3557 47.8384C41.654 47.8384 41.9523 47.7397 42.1512 47.5423C42.2506 47.3449 42.3501 47.0488 42.4495 46.654ZM43.1456 46.2591C43.1456 46.8514 42.9467 47.4436 42.6484 47.8384C42.3501 48.2332 41.8529 48.4306 41.1568 48.4306C40.5602 48.4306 40.063 48.2332 39.7647 47.8384C39.4664 47.4436 39.2675 46.9501 39.2675 46.3579C39.2675 46.3579 39.2675 46.2591 39.2675 46.1604H42.3501C42.3501 45.7656 42.2506 45.4695 42.0518 45.1734C41.8529 44.8773 41.5546 44.7786 41.1568 44.7786C40.6596 44.7786 40.2619 45.0747 40.063 45.6669L39.367 45.5682C39.5658 44.6799 40.2619 44.2851 41.1568 44.2851C41.7535 44.2851 42.2506 44.4825 42.6484 44.8773C43.0461 45.0747 43.1456 45.6669 43.1456 46.2591ZM35.5884 48.3319L37.0799 46.1604L35.6878 44.1864H36.5827L37.1794 45.1734C37.2788 45.3708 37.3782 45.4695 37.4777 45.6669C37.5771 45.4695 37.6765 45.3708 37.776 45.1734L38.472 44.1864H39.2675L37.8754 46.1604L39.367 48.3319H38.472L37.776 47.0488L37.5771 46.7527L36.4833 48.3319H35.5884Z" fill="#0062AD"/>
</svg>
