<svg width="22" height="18" viewBox="0 0 22 18" fill="none" xmlns="http://www.w3.org/2000/svg">
<path d="M10.9998 14.24C13.8937 14.24 16.2398 11.894 16.2398 9.00001C16.2398 6.10604 13.8937 3.76001 10.9998 3.76001C8.10579 3.76001 5.75977 6.10604 5.75977 9.00001C5.75977 11.894 8.10579 14.24 10.9998 14.24Z" fill="#F6C863"/>
<path d="M10.9999 13.37C13.4134 13.37 15.3699 11.4135 15.3699 9C15.3699 6.58652 13.4134 4.63 10.9999 4.63C8.5864 4.63 6.62988 6.58652 6.62988 9C6.62988 11.4135 8.5864 13.37 10.9999 13.37Z" fill="#EAB54E"/>
<path d="M10.9996 12.735C13.0624 12.735 14.7346 11.0628 14.7346 9.00001C14.7346 6.93723 13.0624 5.26501 10.9996 5.26501C8.93686 5.26501 7.26465 6.93723 7.26465 9.00001C7.26465 11.0628 8.93686 12.735 10.9996 12.735Z" fill="#F6C863"/>
<path d="M10.7497 11.775V11.3875C10.335 11.3864 9.9289 11.2695 9.57715 11.05L9.76215 10.55C10.0902 10.7639 10.473 10.8785 10.8647 10.88C11.4072 10.88 11.7747 10.565 11.7747 10.13C11.7747 9.69497 11.4772 9.44748 10.9097 9.21748C10.1297 8.91248 9.64715 8.55998 9.64715 7.89248C9.64715 7.22498 10.0997 6.77498 10.8022 6.65998V6.22498H11.2772V6.61748C11.6279 6.61918 11.9724 6.71131 12.2772 6.88498L12.0872 7.38498C11.7945 7.2148 11.4607 7.12831 11.1222 7.13498C10.5322 7.13498 10.3097 7.48748 10.3097 7.79498C10.3097 8.19248 10.5947 8.39247 11.2597 8.66747C12.0472 8.98747 12.4472 9.38747 12.4472 10.0675C12.4412 10.3954 12.3144 10.7097 12.0911 10.95C11.8679 11.1903 11.5638 11.3399 11.2372 11.37V11.775H10.7497Z" fill="#EAB54E"/>
<path d="M19.905 8.99991V9.07491C19.905 9.38491 19.8825 9.68741 19.8475 9.99241L18.4025 9.81741C18.4295 9.5683 18.4437 9.31797 18.445 9.06741C18.4463 9.04242 18.4463 9.01739 18.445 8.99241C18.445 8.87491 18.445 8.74241 18.445 8.63741C18.3808 7.19543 17.8992 5.80312 17.0586 4.62974C16.218 3.45636 15.0546 2.55244 13.7099 2.02785C12.3652 1.50326 10.8971 1.3806 9.48397 1.67477C8.07085 1.96895 6.77362 2.66729 5.74996 3.68491L4.70996 2.66992C5.93649 1.4475 7.49282 0.609217 9.18844 0.257686C10.884 -0.0938462 12.6454 0.0566269 14.2568 0.690685C15.8682 1.32474 17.2598 2.41487 18.2612 3.82762C19.2626 5.24038 19.8303 6.91445 19.895 8.64491C19.9 8.76241 19.905 8.88241 19.905 8.99991V8.99991Z" fill="#EF5261"/>
<path d="M17.3197 15.285C16.1009 16.5164 14.5495 17.3656 12.8554 17.7287C11.1613 18.0918 9.3981 17.9529 7.78172 17.3292C6.16534 16.7054 4.76596 15.6237 3.75497 14.2167C2.74398 12.8097 2.16527 11.1384 2.08971 9.40747C2.08971 9.27247 2.07471 9.13747 2.07471 8.99997V8.97747C2.07471 8.69997 2.08971 8.42747 2.11471 8.15747L3.55471 8.42747C3.53971 8.60747 3.53221 8.78997 3.53221 8.97747V8.99997V9.40747C3.60663 10.8536 4.10088 12.2467 4.95451 13.4164C5.80814 14.5861 6.98416 15.4817 8.33871 15.9936C9.69326 16.5055 11.1676 16.6115 12.5815 16.2987C13.9954 15.986 15.2875 15.2679 16.2997 14.2325L17.3197 15.285Z" fill="#69B0EE"/>
<path d="M19.9048 8.9999V9.0749H18.4448C18.4461 9.04992 18.4461 9.02488 18.4448 8.9999C18.4448 8.8824 18.4448 8.7499 18.4448 8.6449H19.9023C19.8998 8.7624 19.9048 8.8824 19.9048 8.9999Z" fill="#DA364C"/>
<path d="M3.54471 9.40752H2.08971C2.08971 9.27253 2.07471 9.13753 2.07471 9.00004V8.97754H3.53221V9.00004C3.53221 9.13753 3.53471 9.27253 3.54471 9.40752Z" fill="#419BE9"/>
<path d="M21.2499 9.01001L19.2724 11.3175L17.2949 9.01001H21.2499Z" fill="#EF5261"/>
<path d="M4.705 9.01246L2.7275 6.70496L0.75 9.01246H4.705Z" fill="#69B0EE"/>
</svg>
