<svg width="13" height="16" viewBox="0 0 13 16" fill="none" xmlns="http://www.w3.org/2000/svg">
<path fill-rule="evenodd" clip-rule="evenodd" d="M1.51669 4.33358C1.52003 1.94156 3.72446 0.00318164 6.44473 0.000244141C9.165 0.00318164 11.3694 1.94156 11.3728 4.33358V6.70022C12.2379 6.85462 12.8892 7.52722 12.8892 8.33355V14.3335C12.8892 15.254 12.0406 16.0002 10.9938 16.0002H1.89587C0.84908 16.0002 0.000488281 15.254 0.000488281 14.3336V8.33359C0.000488281 7.52728 0.651597 6.85472 1.51669 6.70026V4.33358ZM3.7912 6.6669H9.09829V4.33358C9.09829 3.0449 7.91023 2.00024 6.44473 2.00024C4.97922 2.00024 3.79116 3.0449 3.7912 4.33358V6.6669ZM8.34011 10.3335C8.34452 9.41308 7.49952 8.66373 6.45273 8.65986C5.40593 8.65598 4.55375 9.39902 4.54935 10.3195C4.54629 10.9557 4.95545 11.538 5.60392 11.8202L5.31126 13.6202C5.28194 13.8025 5.42623 13.9711 5.63352 13.9969C5.65108 13.9991 5.66881 14.0002 5.68655 14.0002H7.20288C7.41223 14.0021 7.58367 13.8544 7.58577 13.6703C7.58595 13.6533 7.5847 13.6363 7.58193 13.6195L7.28927 11.8195C7.92982 11.5377 8.33595 10.9633 8.34011 10.3335Z" fill="#C29B35"/>
</svg>
