<svg width="12" height="13" viewBox="0 0 12 13" fill="none" xmlns="http://www.w3.org/2000/svg">
<path fill-rule="evenodd" clip-rule="evenodd" d="M1.16824 12.9231H0.0642649C-0.343725 11.2531 1.23229 8.85393 3.61623 7.532C3.0091 7.12328 2.52222 6.55699 2.20689 5.89267C1.89156 5.22834 1.75943 4.49053 1.82428 3.7568C1.86397 3.2254 2.01076 2.70778 2.25562 2.23566C2.50047 1.76355 2.83826 1.34688 3.24827 1.01118C4.06943 0.315327 5.1194 -0.0439945 6.19048 0.00430765C7.26156 0.0526098 8.27569 0.505027 9.03211 1.27203C9.44534 1.70309 9.76026 2.22007 9.95493 2.78681C10.1496 3.35356 10.2193 3.95639 10.1591 4.55315C10.0989 5.14991 9.91034 5.7262 9.60651 6.24171C9.30267 6.75722 8.89091 7.1995 8.40009 7.53765C9.44665 7.99159 10.3422 8.73919 10.9803 9.69166C11.6184 10.6441 11.9723 11.7615 12 12.911H10.8C10.7894 12.1967 10.6174 11.4943 10.2971 10.8573C9.97687 10.2203 9.51682 9.66547 8.95203 9.23508C8.24735 8.69144 7.40846 8.35346 6.5266 8.25798C5.64475 8.16249 4.75385 8.31315 3.95098 8.69356C3.14811 9.07396 2.46407 9.66951 1.9734 10.4153C1.48273 11.1611 1.20418 12.0285 1.16824 12.9231ZM5.97613 1.17511C5.40353 1.19512 4.8495 1.38501 4.3832 1.72105C3.9169 2.05709 3.55904 2.52438 3.35432 3.06455C3.1496 3.60471 3.10711 4.19381 3.23215 4.75821C3.35719 5.32262 3.64417 5.83731 4.05733 6.23799C4.47049 6.63868 4.99146 6.90758 5.55514 7.01111C6.11883 7.11463 6.70029 7.0482 7.22678 6.82009C7.75327 6.59198 8.20145 6.21233 8.51542 5.72855C8.82939 5.24478 8.99518 4.67834 8.99207 4.1C8.98563 3.70761 8.90235 3.32037 8.74705 2.96059C8.59176 2.60081 8.36753 2.2756 8.08721 2.00367C7.80689 1.73174 7.476 1.51847 7.1137 1.37613C6.75139 1.2338 6.3648 1.16521 5.97613 1.17431V1.17511Z" fill="white" fill-opacity="0.8"/>
</svg>
