<svg width="124" height="37" viewBox="0 0 124 37" fill="none" xmlns="http://www.w3.org/2000/svg">
<path fill-rule="evenodd" clip-rule="evenodd" d="M4.9515 0C2.21686 0 0 2.21686 0 4.9515V31.6305C0 34.3651 2.21686 36.582 4.9515 36.582H118.208C120.942 36.582 123.159 34.3651 123.159 31.6305V4.9515C123.159 2.21686 120.942 0 118.208 0H4.9515Z" fill="url(#paint0_linear)"/>
<path d="M18.0113 13.7266C17.8134 13.9245 17.6814 14.2544 17.6814 14.6503V29.2322C17.6814 29.6281 17.8134 29.958 18.0113 30.156L18.0773 30.222L26.1934 22.0402V21.9743V21.9083L18.0113 13.7266Z" fill="#5BC9F4"/>
<path d="M28.8987 24.7461L26.1934 22.0409V21.9749V21.9089L28.8987 19.1377L28.9647 19.2037L32.198 21.0512C33.1218 21.579 33.1218 22.4368 32.198 22.9646L28.8987 24.7461Z" fill="url(#paint1_linear)"/>
<path d="M28.965 24.7463L26.1936 21.9751L18.0115 30.1568C18.3414 30.4867 18.8033 30.4867 19.3972 30.2228L28.965 24.7463Z" fill="url(#paint2_linear)"/>
<path d="M28.9637 19.138L19.33 13.6615C18.8021 13.3316 18.2742 13.3976 18.0103 13.7275L26.2584 21.9752L28.9637 19.138Z" fill="url(#paint3_linear)"/>
<path fill-rule="evenodd" clip-rule="evenodd" d="M100.647 28.7062L104.945 18.7986H103.545L101.557 23.7383H101.529L99.4857 18.7986H98.0857L100.913 25.2399L99.3177 28.7062H100.647Z" fill="white"/>
<path fill-rule="evenodd" clip-rule="evenodd" d="M94.6562 18.7986C92.9362 18.7986 92.111 19.8251 91.8735 20.4491L93.0479 20.9483C93.2856 20.3102 93.9709 19.9637 94.6842 19.9637C95.6492 19.9637 96.4742 20.5877 96.4742 21.6142V21.8084C96.2083 21.6558 95.5373 21.3921 94.6142 21.3921C93.0059 21.3921 91.6077 22.2244 91.6077 23.7639C91.6077 25.1789 92.7682 26.0388 94.1667 26.0388C95.3414 26.0388 96.0406 25.4423 96.418 24.8737H96.4742V25.8167H97.7047V21.7112C97.7047 19.7973 96.3341 18.7986 94.6562 18.7986ZM94.3766 24.8735C93.7056 24.8735 92.9503 24.5128 92.9503 23.7916C92.9503 23.1673 93.4817 22.4463 94.8383 22.4463C95.9288 22.4463 96.4744 22.8898 96.4744 22.8898C96.4744 23.9996 95.3974 24.8735 94.3766 24.8735Z" fill="white"/>
<path fill-rule="evenodd" clip-rule="evenodd" d="M89.7019 16.1309H90.8451V26.0385H89.7019V16.1309Z" fill="white"/>
<path fill-rule="evenodd" clip-rule="evenodd" d="M85.4584 16.1309H82.0808V26.0385H83.3543V22.0256H85.4584C87.1053 22.0256 88.5589 20.808 88.5589 19.0784C88.5589 17.3488 87.1053 16.1309 85.4584 16.1309ZM85.4858 20.808H83.3542V17.3487H85.4858C86.6207 17.3487 87.2575 18.2896 87.2575 19.0784C87.2575 19.8669 86.6207 20.808 85.4858 20.808Z" fill="white"/>
<path fill-rule="evenodd" clip-rule="evenodd" d="M73.1202 22.6646C73.0817 21.3774 74.1328 20.7215 74.8893 20.7215C75.4791 20.7215 75.9788 21.0117 76.1455 21.4279L73.1202 22.6646ZM75.0049 26.0968C76.5561 26.0968 77.4533 25.1629 77.8251 24.6205L76.6715 23.8633C76.2868 24.4186 75.7611 24.7846 75.0049 24.7846C74.2484 24.7846 73.7099 24.4439 73.3641 23.775L77.8892 21.9328L77.7353 21.5542C77.4533 20.8099 76.5945 19.4343 74.8382 19.4343C73.0948 19.4343 71.6462 20.7847 71.6462 22.7657C71.6462 24.6332 73.082 26.0968 75.0049 26.0968Z" fill="white"/>
<path fill-rule="evenodd" clip-rule="evenodd" d="M69.4409 25.8948H70.9279V16.1033H69.4409V25.8948Z" fill="white"/>
<path fill-rule="evenodd" clip-rule="evenodd" d="M68.4155 25.6172C68.4155 28.0778 66.9413 29.0871 65.1979 29.0871C63.557 29.0871 62.5697 28.0021 62.1979 27.1187L63.4929 26.5889C63.7237 27.1313 64.2875 27.7749 65.1979 27.7749C66.3131 27.7749 67.0055 27.0934 67.0055 25.8191V25.3396H66.9542C66.6208 25.7434 65.9797 26.0968 65.1722 26.0968C63.4801 26.0968 61.929 24.6458 61.929 22.7783C61.929 20.8983 63.4801 19.4343 65.1722 19.4343C65.9797 19.4343 66.6208 19.7877 66.9542 20.1789H67.0055V19.6362H68.4155V25.6172ZM63.4159 22.7782C63.4159 23.939 64.2746 24.7845 65.3004 24.7845C66.313 24.7845 67.1079 23.939 67.1079 22.7782C67.1079 21.6046 66.313 20.7467 65.3004 20.7467C64.2746 20.7467 63.4159 21.6046 63.4159 22.7782Z" fill="white"/>
<path fill-rule="evenodd" clip-rule="evenodd" d="M61.3136 22.7657C61.3136 24.6836 59.7881 26.0968 57.9164 26.0968C56.0448 26.0968 54.5193 24.6836 54.5193 22.7657C54.5193 20.8352 56.0448 19.4343 57.9164 19.4343C59.7881 19.4343 61.3136 20.8352 61.3136 22.7657ZM56.0062 22.7656C56.0062 23.9516 56.8905 24.7845 57.9163 24.7845C58.9417 24.7845 59.8264 23.9516 59.8264 22.7656C59.8264 21.5667 58.9417 20.7467 57.9163 20.7467C56.8905 20.7467 56.0062 21.5667 56.0062 22.7656Z" fill="white"/>
<path fill-rule="evenodd" clip-rule="evenodd" d="M53.9038 22.7657C53.9038 24.6836 52.3783 26.0968 50.5066 26.0968C48.6349 26.0968 47.1091 24.6836 47.1091 22.7657C47.1091 20.8352 48.6349 19.4343 50.5066 19.4343C52.3783 19.4343 53.9038 20.8352 53.9038 22.7657ZM48.5965 22.7656C48.5965 23.9516 49.4808 24.7845 50.5066 24.7845C51.532 24.7845 52.4167 23.9516 52.4167 22.7656C52.4167 21.5667 51.532 20.7467 50.5066 20.7467C49.4808 20.7467 48.5965 21.5667 48.5965 22.7656Z" fill="white"/>
<path fill-rule="evenodd" clip-rule="evenodd" d="M41.6862 26.0969C43.2505 26.0969 44.4298 25.5921 45.3526 24.6459C46.3014 23.712 46.5963 22.3998 46.5963 21.3397C46.5963 21.0119 46.5707 20.709 46.5194 20.4566H41.6862V21.8698H45.1218C45.0193 22.6648 44.7503 23.245 44.34 23.6489C43.84 24.1411 43.0578 24.6837 41.6862 24.6837C39.5709 24.6837 37.9172 23.0056 37.9172 20.9236C37.9172 18.8416 39.5709 17.1634 41.6862 17.1634C42.8274 17.1634 43.6605 17.6048 44.2759 18.1727L45.2885 17.1761C44.4298 16.3684 43.2886 15.75 41.6862 15.75C38.7891 15.75 36.3533 18.0718 36.3533 20.9236C36.3533 23.7751 38.7891 26.0969 41.6862 26.0969Z" fill="white"/>
<path fill-rule="evenodd" clip-rule="evenodd" d="M40.1542 10.5384C40.1086 10.5979 40.0451 10.6639 39.9637 10.7363C39.8823 10.8088 39.7776 10.8763 39.6496 10.9388C39.5216 11.0013 39.3678 11.0539 39.1882 11.0966C39.0085 11.1392 38.7977 11.1606 38.5555 11.1606C38.2836 11.1606 38.0341 11.1139 37.8068 11.0207C37.5796 10.9274 37.3846 10.7924 37.2218 10.6158C37.0591 10.4391 36.9325 10.2218 36.8422 9.9638C36.7519 9.70579 36.7068 9.41106 36.7068 9.07962V8.79382C36.7068 8.46436 36.7475 8.17013 36.8288 7.91112C36.9102 7.65212 37.0273 7.43331 37.1801 7.25468C37.333 7.07606 37.5195 6.94011 37.7398 6.84683C37.9601 6.75355 38.2102 6.70691 38.49 6.70691C38.754 6.70691 38.9842 6.74114 39.1807 6.80962C39.3772 6.87809 39.5429 6.97385 39.6779 7.0969C39.8128 7.21995 39.919 7.36632 39.9964 7.53602C40.0738 7.70571 40.1254 7.89177 40.1512 8.09421H39.4129C39.3951 7.98108 39.3653 7.87689 39.3236 7.78162C39.2819 7.68636 39.2249 7.60399 39.1524 7.53453C39.08 7.46506 38.9907 7.41048 38.8845 7.37079C38.7783 7.3311 38.6518 7.31125 38.5049 7.31125C38.3283 7.31125 38.175 7.344 38.045 7.40949C37.915 7.47499 37.8068 7.57075 37.7205 7.69678C37.6341 7.82281 37.5696 7.97761 37.527 8.1612C37.4843 8.34478 37.463 8.55367 37.463 8.78787V9.07962C37.463 9.31778 37.4888 9.52865 37.5404 9.71224C37.592 9.89583 37.6659 10.0501 37.7622 10.1752C37.8584 10.3002 37.9755 10.3955 38.1134 10.461C38.2514 10.5265 38.4077 10.5592 38.5823 10.5592C38.7113 10.5592 38.822 10.5508 38.9143 10.5339C39.0066 10.517 39.0845 10.4957 39.148 10.4699C39.2115 10.4441 39.2636 10.4158 39.3043 10.3851C39.3449 10.3543 39.3782 10.325 39.404 10.2972V9.44877H38.5109V8.87718H40.1542V10.5384ZM43.5156 9.16569H41.7353V10.4994H43.8162V11.1008H40.9821V6.76619H43.7954V7.37351H41.7353V8.57028H43.5156V9.16569ZM47.5612 7.37351H46.2096V11.1008H45.4624V7.37351H44.1227V6.76619H47.5612V7.37351ZM50.4431 11.1008H49.6929V6.76619H50.4431V11.1008ZM54.501 7.37351H53.1494V11.1008H52.4022V7.37351H51.0625V6.76619H54.501V7.37351ZM60.0471 9.04675C60.0471 9.37621 60.0039 9.67143 59.9176 9.93242C59.8313 10.1934 59.7097 10.4147 59.5529 10.5963C59.3961 10.7779 59.2076 10.9173 58.9873 11.0146C58.767 11.1118 58.5229 11.1605 58.2549 11.1605C57.989 11.1605 57.7459 11.1118 57.5256 11.0146C57.3052 10.9173 57.1152 10.7779 56.9554 10.5963C56.7957 10.4147 56.6716 10.1934 56.5833 9.93242C56.495 9.67143 56.4508 9.37621 56.4508 9.04675V8.82645C56.4508 8.49698 56.495 8.20127 56.5833 7.93929C56.6716 7.6773 56.7947 7.45502 56.9525 7.27243C57.1103 7.08983 57.2993 6.94991 57.5196 6.85266C57.7399 6.75541 57.983 6.70679 58.249 6.70679C58.5169 6.70679 58.7615 6.75541 58.9828 6.85266C59.2041 6.94991 59.3937 7.08983 59.5514 7.27243C59.7092 7.45502 59.8313 7.6773 59.9176 7.93929C60.0039 8.20127 60.0471 8.49698 60.0471 8.82645V9.04675ZM59.2937 8.82036C59.2937 8.57823 59.2704 8.36438 59.2238 8.17881C59.1771 7.99324 59.1091 7.83794 59.0198 7.7129C58.9305 7.58786 58.8209 7.4931 58.6909 7.42859C58.5609 7.36409 58.4135 7.33184 58.2488 7.33184C58.088 7.33184 57.9431 7.36409 57.8141 7.42859C57.6851 7.4931 57.5755 7.58786 57.4852 7.7129C57.3949 7.83794 57.3254 7.99324 57.2768 8.17881C57.2281 8.36438 57.2038 8.57823 57.2038 8.82036V9.04662C57.2038 9.28875 57.2281 9.5031 57.2768 9.68966C57.3254 9.87622 57.3954 10.0325 57.4867 10.1585C57.5779 10.2846 57.6886 10.3798 57.8186 10.4443C57.9486 10.5088 58.094 10.5411 58.2547 10.5411C58.5882 10.5411 58.8447 10.4141 59.0243 10.16C59.2039 9.90599 59.2937 9.53486 59.2937 9.04662V8.82036ZM64.2356 11.1008H63.4824L61.5503 8.02548V11.1008H60.7971V6.76619H61.5503L63.4883 9.85339V6.76619H64.2356V11.1008Z" fill="white"/>
<defs>
<linearGradient id="paint0_linear" x1="61.5797" y1="0" x2="61.5797" y2="36.582" gradientUnits="userSpaceOnUse">
<stop/>
<stop offset="1"/>
</linearGradient>
<linearGradient id="paint1_linear" x1="31.6136" y1="21.9413" x2="15.6619" y2="21.9413" gradientUnits="userSpaceOnUse">
<stop stop-color="#FEE000"/>
<stop offset="0.1941" stop-color="#FCCF0B"/>
<stop offset="0.5469" stop-color="#FAB318"/>
<stop offset="0.8279" stop-color="#F9A21B"/>
<stop offset="1" stop-color="#F99B1C"/>
</linearGradient>
<linearGradient id="paint2_linear" x1="27.4742" y1="23.4541" x2="12.4716" y2="38.4574" gradientUnits="userSpaceOnUse">
<stop stop-color="#EF4547"/>
<stop offset="1" stop-color="#C6186D"/>
</linearGradient>
<linearGradient id="paint3_linear" x1="12.4028" y1="5.35888" x2="24.652" y2="17.6087" gradientUnits="userSpaceOnUse">
<stop stop-color="#279E6F"/>
<stop offset="0.3168" stop-color="#4DAB6D"/>
<stop offset="0.7398" stop-color="#6ABA6A"/>
<stop offset="1" stop-color="#74C169"/>
</linearGradient>
</defs>
</svg>
