<svg width="12" height="12" viewBox="0 0 12 12" fill="none" xmlns="http://www.w3.org/2000/svg">
<path d="M11.2394 0.760588C10.2253 -0.253553 8.5752 -0.253506 7.56108 0.760588L0.137297 8.18437C0.05025 8.27137 0.000960938 8.3906 0.000164063 8.51264C0.000164063 8.51371 0 8.51477 0 8.51585V11.5312C0 11.7901 0.209883 12 0.468797 12H3.48415C3.60602 12 3.72703 11.9513 3.81565 11.8627C4.05743 11.6209 11.1188 4.55948 11.2394 4.43887C12.2535 3.42478 12.2535 1.77471 11.2394 0.760588ZM0.937594 11.0624V9.64764L2.35238 11.0624H0.937594ZM3.48415 10.8682L1.13177 8.51585L6.98925 2.65837L7.83394 3.50306L4.6857 6.65132C4.5026 6.83439 4.5026 7.13121 4.6857 7.3143C4.86877 7.49737 5.1656 7.49739 5.3487 7.3143L8.49694 4.16606L9.34163 5.01072L3.48415 10.8682ZM10.5764 3.77592L10.0046 4.34774L7.65225 1.99539L8.2241 1.42356C8.87266 0.775002 9.92794 0.775049 10.5765 1.42356C11.225 2.0721 11.225 3.12738 10.5764 3.77592Z" fill="white" fill-opacity="0.8"/>
</svg>
