<svg width="16" height="16" viewBox="0 0 16 16" fill="none" xmlns="http://www.w3.org/2000/svg">
<g opacity="0.4">
<path d="M6.58871 13.1774C2.95567 13.1774 0 10.2217 0 6.58871C0 2.95567 2.95567 0 6.58871 0C10.2217 0 13.1774 2.95567 13.1774 6.58871C13.1774 10.2217 10.2217 13.1774 6.58871 13.1774ZM6.58871 1.24904C3.6444 1.24904 1.24904 3.6444 1.24904 6.58871C1.24904 9.53301 3.6444 11.9284 6.58871 11.9284C9.53301 11.9284 11.9284 9.53301 11.9284 6.58871C11.9284 3.6444 9.53301 1.24904 6.58871 1.24904ZM15.8049 15.8171C16.0487 15.5732 16.0487 15.1777 15.8049 14.9338L13.0101 12.1391C12.7662 11.8952 12.3708 11.8952 12.1269 12.1391C11.883 12.383 11.883 12.7785 12.1269 13.0223L14.9216 15.8171C15.0436 15.939 15.2034 16 15.3633 16C15.5231 16 15.6829 15.939 15.8049 15.8171Z" fill="black"/>
</g>
</svg>
