<svg width="17" height="16" viewBox="0 0 17 16" fill="none" xmlns="http://www.w3.org/2000/svg">
<path d="M0 4.86937C0.0537632 4.48968 0.0947256 4.10783 0.163062 3.73089C0.550432 1.59592 2.06191 0.143333 4.22307 0.0688913C6.82517 -0.020517 9.43514 -0.0252435 12.0368 0.0684975C14.389 0.153179 16.0925 1.89487 16.166 4.24785C16.2442 6.74636 16.2442 9.25097 16.166 11.7495C16.0925 14.1025 14.3896 15.844 12.037 15.9288C9.43534 16.0228 6.82477 16.0251 4.22326 15.9275C1.87068 15.839 0.244396 14.0934 0.0870451 11.7369C0.0734567 11.5331 0.0297372 11.331 0 11.1282C0 9.04183 0 6.9555 0 4.86937ZM8.1145 14.5343C9.30517 14.5343 10.497 14.57 11.6861 14.5261C13.5505 14.4569 14.6972 13.3443 14.7408 11.4817C14.7947 9.16078 14.7947 6.83675 14.7408 4.51568C14.6972 2.65346 13.5497 1.51479 11.6861 1.4752C9.32072 1.42518 6.95278 1.42557 4.5874 1.4752C2.73798 1.514 1.58788 2.62963 1.53767 4.47137C1.47386 6.82159 1.47386 9.17594 1.53767 11.5262C1.58788 13.3677 2.73798 14.4575 4.58759 14.5261C5.76172 14.5698 6.9388 14.5343 8.1145 14.5343Z" fill="white"/>
<path d="M8.11247 3.86572C5.82921 3.86572 3.97803 5.71671 3.97803 7.99997C3.97803 10.2834 5.82921 12.1344 8.11247 12.1344C10.3959 12.1344 12.2469 10.2834 12.2469 7.99997C12.2469 5.71671 10.3959 3.86572 8.11247 3.86572ZM8.11247 10.711C6.61518 10.711 5.40147 9.49727 5.40147 7.99997C5.40147 6.50268 6.61518 5.28897 8.11247 5.28897C9.60977 5.28897 10.8235 6.50268 10.8235 7.99997C10.8235 9.49727 9.60977 10.711 8.11247 10.711Z" fill="white"/>
<path d="M13.4716 3.67705C13.4716 4.22019 13.0312 4.66054 12.4881 4.66054C11.9449 4.66054 11.5044 4.22019 11.5044 3.67705C11.5044 3.13371 11.9449 2.69336 12.4881 2.69336C13.0312 2.69336 13.4716 3.13371 13.4716 3.67705Z" fill="white"/>
</svg>
