<svg width="12" height="13" viewBox="0 0 12 13" fill="none" xmlns="http://www.w3.org/2000/svg">
<path fill-rule="evenodd" clip-rule="evenodd" d="M0.20166 1.79243C0.20166 1.01763 0.83037 0.388916 1.60518 0.388916C2.3795 0.388916 3.00821 1.01763 3.0087 1.79243C3.0087 2.56724 2.37999 3.2091 1.60518 3.2091C0.83037 3.2091 0.20166 2.56724 0.20166 1.79243ZM11.887 12.0768V12.0764H11.89V7.78982C11.89 5.69281 11.4385 4.07745 8.98698 4.07745C7.80845 4.07745 7.01757 4.72418 6.69469 5.33731H6.6606V4.27322H4.33618V12.0764H6.75654V8.21253C6.75654 7.1952 6.94939 6.21147 8.20925 6.21147C9.4506 6.21147 9.4691 7.37246 9.4691 8.27779V12.0768H11.887ZM0.394354 4.2734H2.81764V12.0765H0.394354V4.2734Z" fill="white"/>
</svg>
