<svg width="16" height="14" viewBox="0 0 16 14" fill="none" xmlns="http://www.w3.org/2000/svg">
<path d="M16.0002 1.54633C15.429 1.84508 14.5688 1.98313 14.2837 2.02291C14.2813 2.00913 14.2789 1.99593 14.2766 1.98274C15.2461 1.38307 15.5429 0.254046 15.5429 0.254046C14.9424 0.597303 14.4133 0.787739 14.0147 0.893296C13.7905 0.953361 13.6076 0.985855 13.476 1.00397C12.8718 0.384417 12.0282 0 11.0943 0C9.25692 0 7.7671 1.48942 7.7671 3.32741C7.7671 3.39358 7.76888 3.45936 7.77321 3.52454C7.78207 3.68386 7.80236 3.84042 7.83367 3.99265C6.94431 3.97946 3.73408 3.70671 1.07388 0.616603C1.07388 0.616603 -0.407458 3.20117 2.08298 4.96669C2.08298 4.96669 1.07388 4.93518 0.538222 4.55687C0.538222 4.55687 0.380675 7.04731 3.24903 7.83505C3.24903 7.83505 2.24053 8.08752 1.73578 7.86675C1.73578 7.86675 2.24033 10.0102 4.76208 10.1681C4.76208 10.1681 2.95343 11.824 0 11.5857C1.45259 12.5054 3.17478 13.0377 5.02124 13.0377C10.213 13.0377 14.4219 8.82898 14.4219 3.63719C14.4219 3.5724 14.4213 3.5076 14.42 3.44281C14.4213 3.40441 14.4219 3.36621 14.4219 3.32741C14.4219 3.30043 14.4213 3.27345 14.4209 3.24647C15.3808 2.60682 16.0002 1.54633 16.0002 1.54633Z" fill="white"/>
</svg>
