<svg width="16" height="12" viewBox="0 0 16 12" fill="none" xmlns="http://www.w3.org/2000/svg">
<path fill-rule="evenodd" clip-rule="evenodd" d="M15.6705 9.46289C15.9999 8.21085 15.9999 5.61436 15.9999 5.61436C15.9999 5.61436 16.0131 3.00498 15.6705 1.75294C15.4859 1.06763 14.9455 0.527073 14.2602 0.342656C13.0082 0 8.00002 0 8.00002 0C8.00002 0 2.99188 0 1.73984 0.329567C1.06762 0.513984 0.513982 1.06763 0.329566 1.75294C0 3.00498 0 5.60127 0 5.60127C0 5.60127 0 8.21085 0.329566 9.44961C0.514177 10.1349 1.05453 10.6755 1.73984 10.8599C3.00497 11.2025 8.00002 11.2025 8.00002 11.2025C8.00002 11.2025 13.0082 11.2025 14.2602 10.873C14.9455 10.6886 15.4859 10.1482 15.6705 9.46289ZM10.57 5.60115L6.40537 7.99974V3.20256L10.57 5.60115Z" fill="white"/>
</svg>
