<svg width="14" height="12" viewBox="0 0 14 12" fill="none" xmlns="http://www.w3.org/2000/svg">
<path d="M0.174316 3.94174C0.174316 2.8767 0.174316 1.81715 0.174316 0.752115C0.174316 0.258025 0.432342 0 0.920944 0C2.84241 0 4.76388 0 6.68535 0C7.15748 0 7.42099 0.263515 7.42099 0.741135C7.42099 2.88219 7.42099 5.02325 7.42099 7.16431C7.42099 7.64193 7.15748 7.90544 6.68535 7.90544C4.76388 7.90544 2.84241 7.90544 0.920944 7.90544C0.432342 7.90544 0.174316 7.64193 0.174316 7.15333C0.174316 6.0828 0.174316 5.01227 0.174316 3.94174ZM6.09244 1.33404C4.54977 1.33404 3.02358 1.33404 1.50836 1.33404C1.50836 3.09081 1.50836 4.8366 1.50836 6.57689C3.04554 6.57689 4.56624 6.57689 6.09244 6.57689C6.09244 4.82562 6.09244 3.08532 6.09244 1.33404Z" fill="#A1AAB4"/>
<path d="M11.044 1.31758C10.517 1.31758 9.98998 1.31758 9.45746 1.31758C9.03474 1.31758 8.73828 1.04309 8.73828 0.664281C8.73828 0.274496 9.03474 0 9.46844 0C10.5225 0 11.582 0 12.6361 0C13.0533 0 13.3498 0.279986 13.3443 0.664281C13.3443 1.04309 13.0478 1.31758 12.6251 1.31758C12.1036 1.31758 11.5711 1.31758 11.044 1.31758Z" fill="#A1AAB4"/>
<path d="M11.055 3.29382C11.582 3.29382 12.1091 3.29382 12.6416 3.29382C13.0588 3.29382 13.3553 3.5793 13.3498 3.9581C13.3443 4.33142 13.0478 4.6114 12.6471 4.6114C11.5766 4.6114 10.506 4.6114 9.4355 4.6114C9.02925 4.6114 8.73828 4.33142 8.73828 3.9581C8.73828 3.57381 9.02925 3.29931 9.44648 3.29382C9.98449 3.29382 10.5225 3.29382 11.055 3.29382Z" fill="#A1AAB4"/>
<path d="M11.0451 7.90557C10.5181 7.90557 9.99103 7.90557 9.464 7.90557C9.03579 7.90557 8.73384 7.62559 8.73933 7.23581C8.74482 6.85701 9.04128 6.58801 9.464 6.58801C10.5181 6.58801 11.5721 6.58801 12.6262 6.58801C13.0544 6.58801 13.3563 6.86799 13.3509 7.25777C13.3454 7.63657 13.0489 7.90557 12.6262 7.90557C12.0992 7.90557 11.5721 7.90557 11.0451 7.90557Z" fill="#A1AAB4"/>
<path d="M11.0449 11.1999C10.5179 11.1999 1.25177 11.1999 0.724741 11.1999C0.296528 11.1999 -0.00541625 10.9199 7.3655e-05 10.5301C0.00556356 10.1513 0.302018 9.88232 0.724741 9.88232C1.7788 9.88232 11.5719 9.88232 12.626 9.88232C13.0542 9.88232 13.3562 10.1623 13.3507 10.5521C13.3452 10.9309 13.0487 11.1999 12.626 11.1999C12.099 11.1999 11.5719 11.1999 11.0449 11.1999Z" fill="#A1AAB4"/>
</svg>
