<svg width="40" height="40" viewBox="0 0 40 40" fill="none" xmlns="http://www.w3.org/2000/svg">
<g clip-path="url(#clip0)">
<path d="M31.25 2.50024V5.00024H1.875V2.50024C1.875 1.80962 2.31328 1.25024 2.85391 1.25024H30.2711C30.8117 1.25024 31.25 1.80962 31.25 2.50024Z" fill="#3F8DCD"/>
<path d="M3.75 32.5002H8.75V35.0002H3.75V32.5002Z" fill="#57A4FF"/>
<path d="M9.375 17.5002C11.1009 17.5002 12.5 16.1011 12.5 14.3752C12.5 12.6494 11.1009 11.2502 9.375 11.2502C7.64911 11.2502 6.25 12.6494 6.25 14.3752C6.25 16.1011 7.64911 17.5002 9.375 17.5002Z" fill="#57A4FF"/>
<path d="M28.1248 22.5002H20.6248L18.0342 18.4299L21.8748 11.9424L28.1248 22.5002Z" fill="#57A4FF"/>
<path d="M21.8626 33.7683L24.5142 36.4199L24.4353 36.498L21.3423 36.9394L21.7837 33.8464L21.8626 33.7683Z" fill="#57A4FF"/>
<path d="M9.375 17.5002C11.1009 17.5002 12.5 16.1011 12.5 14.3752C12.5 12.6494 11.1009 11.2502 9.375 11.2502C7.64911 11.2502 6.25 12.6494 6.25 14.3752C6.25 16.1011 7.64911 17.5002 9.375 17.5002Z" fill="#57A4FF"/>
<path d="M28.1248 22.5002H20.6248L18.0342 18.4299L21.8748 11.9424L28.1248 22.5002Z" fill="#57A4FF"/>
<path d="M28.1248 22.5002H20.6248L18.0342 18.4299L21.8748 11.9424L28.1248 22.5002Z" fill="#3F8DCD"/>
<path d="M9.375 17.5002C11.1009 17.5002 12.5 16.1011 12.5 14.3752C12.5 12.6494 11.1009 11.2502 9.375 11.2502C7.64911 11.2502 6.25 12.6494 6.25 14.3752C6.25 16.1011 7.64911 17.5002 9.375 17.5002Z" fill="#3F8DCD"/>
<path d="M20.625 22.5002H11.875L16.25 15.6252L18.0344 18.4299L20.625 22.5002Z" fill="#3F8DCD"/>
<path d="M23.1831 32.4419L32.9043 22.7207L35.5555 25.3718L25.8342 35.093L23.1831 32.4419Z" fill="#3F8DCD"/>
<path d="M24.5142 36.4196L24.4353 36.4977L21.3423 36.9392L21.7837 33.8462L21.8626 33.7681L24.5142 36.4196Z" fill="#3F8DCD"/>
<path d="M32.9053 22.7212L34.2308 21.3956L36.882 24.0468L35.5564 25.3723L32.9053 22.7212Z" fill="#3F8DCD"/>
<path d="M3.75 32.5002H8.75V35.0002H3.75V32.5002Z" fill="#3F8DCD"/>
<path d="M4.29688 3.75024C4.64205 3.75024 4.92188 3.47042 4.92188 3.12524C4.92188 2.78007 4.64205 2.50024 4.29688 2.50024C3.9517 2.50024 3.67188 2.78007 3.67188 3.12524C3.67188 3.47042 3.9517 3.75024 4.29688 3.75024Z" fill="#002B53"/>
<path d="M6.25 3.75024C6.59518 3.75024 6.875 3.47042 6.875 3.12524C6.875 2.78007 6.59518 2.50024 6.25 2.50024C5.90482 2.50024 5.625 2.78007 5.625 3.12524C5.625 3.47042 5.90482 3.75024 6.25 3.75024Z" fill="#002B53"/>
<path d="M8.125 3.75024C8.47018 3.75024 8.75 3.47042 8.75 3.12524C8.75 2.78007 8.47018 2.50024 8.125 2.50024C7.77982 2.50024 7.5 2.78007 7.5 3.12524C7.5 3.47042 7.77982 3.75024 8.125 3.75024Z" fill="#002B53"/>
<path d="M15.625 24.3752H3.75C3.58424 24.3752 3.42527 24.4411 3.30806 24.5583C3.19085 24.6755 3.125 24.8345 3.125 25.0002C3.125 25.166 3.19085 25.325 3.30806 25.4422C3.42527 25.5594 3.58424 25.6252 3.75 25.6252H15.625C15.7908 25.6252 15.9497 25.5594 16.0669 25.4422C16.1842 25.325 16.25 25.166 16.25 25.0002C16.25 24.8345 16.1842 24.6755 16.0669 24.5583C15.9497 24.4411 15.7908 24.3752 15.625 24.3752Z" fill="#002B53"/>
<path d="M15.625 26.8752H3.75C3.58424 26.8752 3.42527 26.9411 3.30806 27.0583C3.19085 27.1755 3.125 27.3345 3.125 27.5002C3.125 27.666 3.19085 27.825 3.30806 27.9422C3.42527 28.0594 3.58424 28.1252 3.75 28.1252H15.625C15.7908 28.1252 15.9497 28.0594 16.0669 27.9422C16.1842 27.825 16.25 27.666 16.25 27.5002C16.25 27.3345 16.1842 27.1755 16.0669 27.0583C15.9497 26.9411 15.7908 26.8752 15.625 26.8752Z" fill="#002B53"/>
<path d="M15.625 29.3752H3.75C3.58424 29.3752 3.42527 29.4411 3.30806 29.5583C3.19085 29.6755 3.125 29.8345 3.125 30.0002C3.125 30.166 3.19085 30.325 3.30806 30.4422C3.42527 30.5594 3.58424 30.6252 3.75 30.6252H15.625C15.7908 30.6252 15.9497 30.5594 16.0669 30.4422C16.1842 30.325 16.25 30.166 16.25 30.0002C16.25 29.8345 16.1842 29.6755 16.0669 29.5583C15.9497 29.4411 15.7908 29.3752 15.625 29.3752Z" fill="#002B53"/>
<path d="M23.125 24.3752H18.125C17.9592 24.3752 17.8003 24.4411 17.6831 24.5583C17.5658 24.6755 17.5 24.8345 17.5 25.0002C17.5 25.166 17.5658 25.325 17.6831 25.4422C17.8003 25.5594 17.9592 25.6252 18.125 25.6252H23.125C23.2908 25.6252 23.4497 25.5594 23.5669 25.4422C23.6842 25.325 23.75 25.166 23.75 25.0002C23.75 24.8345 23.6842 24.6755 23.5669 24.5583C23.4497 24.4411 23.2908 24.3752 23.125 24.3752Z" fill="#002B53"/>
<path d="M23.125 26.8752H18.125C17.9592 26.8752 17.8003 26.9411 17.6831 27.0583C17.5658 27.1755 17.5 27.3345 17.5 27.5002C17.5 27.666 17.5658 27.825 17.6831 27.9422C17.8003 28.0594 17.9592 28.1252 18.125 28.1252H23.125C23.2908 28.1252 23.4497 28.0594 23.5669 27.9422C23.6842 27.825 23.75 27.666 23.75 27.5002C23.75 27.3345 23.6842 27.1755 23.5669 27.0583C23.4497 26.9411 23.2908 26.8752 23.125 26.8752Z" fill="#002B53"/>
<path d="M8.75 31.8752H3.75C3.58424 31.8752 3.42527 31.9411 3.30806 32.0583C3.19085 32.1755 3.125 32.3345 3.125 32.5002V35.0002C3.125 35.166 3.19085 35.325 3.30806 35.4422C3.42527 35.5594 3.58424 35.6252 3.75 35.6252H8.75C8.91576 35.6252 9.07473 35.5594 9.19194 35.4422C9.30915 35.325 9.375 35.166 9.375 35.0002V32.5002C9.375 32.3345 9.30915 32.1755 9.19194 32.0583C9.07473 31.9411 8.91576 31.8752 8.75 31.8752ZM8.125 34.3752H4.375V33.1252H8.125V34.3752Z" fill="#002B53"/>
<path d="M15.625 31.8752H10.625C10.4592 31.8752 10.3003 31.9411 10.1831 32.0583C10.0658 32.1755 10 32.3345 10 32.5002C10 32.666 10.0658 32.825 10.1831 32.9422C10.3003 33.0594 10.4592 33.1252 10.625 33.1252H15.625C15.7908 33.1252 15.9497 33.0594 16.0669 32.9422C16.1842 32.825 16.25 32.666 16.25 32.5002C16.25 32.3345 16.1842 32.1755 16.0669 32.0583C15.9497 31.9411 15.7908 31.8752 15.625 31.8752Z" fill="#002B53"/>
<path d="M19.375 29.3752H18.125C17.9592 29.3752 17.8003 29.4411 17.6831 29.5583C17.5658 29.6755 17.5 29.8345 17.5 30.0002C17.5 30.166 17.5658 30.325 17.6831 30.4422C17.8003 30.5594 17.9592 30.6252 18.125 30.6252H19.375C19.5408 30.6252 19.6997 30.5594 19.8169 30.4422C19.9342 30.325 20 30.166 20 30.0002C20 29.8345 19.9342 29.6755 19.8169 29.5583C19.6997 29.4411 19.5408 29.3752 19.375 29.3752Z" fill="#002B53"/>
<path d="M21.25 30.6252H21.875C22.0408 30.6252 22.1997 30.5594 22.3169 30.4422C22.4342 30.325 22.5 30.166 22.5 30.0002C22.5 29.8345 22.4342 29.6755 22.3169 29.5583C22.1997 29.4411 22.0408 29.3752 21.875 29.3752H21.25C21.0842 29.3752 20.9253 29.4411 20.8081 29.5583C20.6908 29.6755 20.625 29.8345 20.625 30.0002C20.625 30.166 20.6908 30.325 20.8081 30.4422C20.9253 30.5594 21.0842 30.6252 21.25 30.6252Z" fill="#002B53"/>
<path d="M38.1359 21.0299L37.2516 20.1456C36.8995 19.7947 36.4228 19.5977 35.9258 19.5977C35.4288 19.5977 34.952 19.7947 34.6 20.1456L32.5 22.2456V2.50024C32.4993 2.00317 32.3016 1.52664 31.9501 1.17515C31.5986 0.823662 31.1221 0.625906 30.625 0.625244H3.125C2.62792 0.625906 2.15139 0.823662 1.79991 1.17515C1.44842 1.52664 1.25066 2.00317 1.25 2.50024V37.5002C1.25066 37.9973 1.44842 38.4739 1.79991 38.8253C2.15139 39.1768 2.62792 39.3746 3.125 39.3752H30.625C31.1221 39.3746 31.5986 39.1768 31.9501 38.8253C32.3016 38.4739 32.4993 37.9973 32.5 37.5002V29.3752C32.5 29.3565 32.4984 29.3385 32.4969 29.3198L38.1359 23.6815C38.4868 23.3295 38.6838 22.8527 38.6838 22.3557C38.6838 21.8587 38.4868 21.382 38.1359 21.0299ZM2.5 2.50024C2.50023 2.33455 2.56615 2.17571 2.68331 2.05855C2.80047 1.94139 2.95931 1.87547 3.125 1.87524H30.625C30.7907 1.87547 30.9495 1.94139 31.0667 2.05855C31.1839 2.17571 31.2498 2.33455 31.25 2.50024V4.37524H2.5V2.50024ZM31.25 37.5002C31.2498 37.6659 31.1839 37.8248 31.0667 37.9419C30.9495 38.0591 30.7907 38.125 30.625 38.1252H3.125C2.95931 38.125 2.80047 38.0591 2.68331 37.9419C2.56615 37.8248 2.50023 37.6659 2.5 37.5002V5.62524H31.25V23.4956L21.3422 33.4042C21.2464 33.4995 21.1842 33.6235 21.1648 33.7573L20.7234 36.851C20.7107 36.9397 20.7172 37.03 20.7424 37.116C20.7677 37.2019 20.8111 37.2814 20.8698 37.3491C20.9285 37.4167 21.0011 37.471 21.0826 37.5081C21.1641 37.5452 21.2526 37.5644 21.3422 37.5643C21.3717 37.5645 21.4012 37.5624 21.4305 37.5581L24.5242 37.1166C24.658 37.0973 24.7819 37.0351 24.8773 36.9393L31.25 30.5674V37.5002ZM22.668 33.8463L23.1094 33.4042L24.8773 35.1721L24.4352 35.6135L22.668 33.8463ZM23.1094 36.0557L22.0781 36.2034L22.2258 35.1721L23.1094 36.0557ZM25.7617 34.2877L23.9937 32.5198L32.832 23.6815L34.6 25.4495L25.7617 34.2877ZM35.4844 24.5651L33.7164 22.7971L34.1586 22.3557L35.9258 24.1229L35.4844 24.5651ZM37.2516 22.7971L36.8102 23.2393L35.0422 21.4713L35.4844 21.0299C35.6016 20.9128 35.7605 20.847 35.9262 20.847C36.0919 20.847 36.2508 20.9128 36.368 21.0299L37.2516 21.9135C37.3687 22.0307 37.4345 22.1896 37.4345 22.3553C37.4345 22.521 37.3687 22.6799 37.2516 22.7971Z" fill="#002B53"/>
<path d="M3.75 23.1252H30C30.1658 23.1252 30.3247 23.0594 30.4419 22.9422C30.5592 22.825 30.625 22.666 30.625 22.5002V8.75024C30.625 8.58448 30.5592 8.42551 30.4419 8.3083C30.3247 8.19109 30.1658 8.12524 30 8.12524H3.75C3.58424 8.12524 3.42527 8.19109 3.30806 8.3083C3.19085 8.42551 3.125 8.58448 3.125 8.75024V22.5002C3.125 22.666 3.19085 22.825 3.30806 22.9422C3.42527 23.0594 3.58424 23.1252 3.75 23.1252ZM9.375 14.3752C9.20924 14.3752 9.05027 14.4411 8.93306 14.5583C8.81585 14.6755 8.75 14.8345 8.75 15.0002V16.7963C8.16084 16.6442 7.64738 16.2824 7.30587 15.7788C6.96437 15.2752 6.81825 14.6643 6.89493 14.0607C6.9716 13.4571 7.26579 12.9021 7.72235 12.4999C8.17892 12.0976 8.76652 11.8757 9.375 11.8757C9.98348 11.8757 10.5711 12.0976 11.0276 12.4999C11.4842 12.9021 11.7784 13.4571 11.8551 14.0607C11.9317 14.6643 11.7856 15.2752 11.4441 15.7788C11.1026 16.2824 10.5892 16.6442 10 16.7963V15.0002C10 14.8345 9.93415 14.6755 9.81694 14.5583C9.69973 14.4411 9.54076 14.3752 9.375 14.3752ZM13.0133 21.8752L16.25 16.7893L17.4969 18.7487C17.4992 18.7528 17.5018 18.7567 17.5047 18.7604L19.4867 21.8752H13.0133ZM20.968 21.8752L18.768 18.4174L21.875 13.169L27.0289 21.8752H20.968ZM4.375 9.37524H29.375V21.8752H28.4813L22.4125 11.6245C22.3574 11.5309 22.2788 11.4534 22.1845 11.3996C22.0902 11.3457 21.9836 11.3174 21.875 11.3174C21.7664 11.3174 21.6598 11.3457 21.5655 11.3996C21.4712 11.4534 21.3926 11.5309 21.3375 11.6245L18.0156 17.2354L16.7773 15.2901C16.7209 15.2014 16.643 15.1283 16.5508 15.0777C16.4586 15.0271 16.3552 15.0005 16.25 15.0005C16.1448 15.0005 16.0414 15.0271 15.9492 15.0777C15.857 15.1283 15.7791 15.2014 15.7227 15.2901L11.532 21.8752H10V18.0721C10.9271 17.9154 11.7615 17.4161 12.3379 16.6732C12.9143 15.9303 13.1905 14.998 13.1119 14.061C13.0332 13.124 12.6055 12.2507 11.9134 11.6143C11.2212 10.9778 10.3153 10.6246 9.375 10.6246C8.43472 10.6246 7.52876 10.9778 6.83664 11.6143C6.14453 12.2507 5.71677 13.124 5.63814 14.061C5.5595 14.998 5.83574 15.9303 6.4121 16.6732C6.98846 17.4161 7.82288 17.9154 8.75 18.0721V19.4573L7.84688 18.8549C7.77855 18.8094 7.70191 18.7777 7.62136 18.7618C7.5408 18.7459 7.45789 18.7459 7.37736 18.762C7.29684 18.7782 7.22027 18.81 7.15204 18.8557C7.0838 18.9014 7.02524 18.96 6.97969 19.0284C6.93413 19.0967 6.90249 19.1733 6.88655 19.2539C6.87061 19.3344 6.8707 19.4174 6.88681 19.4979C6.90291 19.5784 6.93472 19.655 6.98041 19.7232C7.02611 19.7914 7.0848 19.85 7.15312 19.8956L8.75 20.9596V21.8752H4.375V9.37524Z" fill="#002B53"/>
<path d="M27.0874 30.3105C26.9701 30.4277 26.9043 30.5867 26.9043 30.7525C26.9043 30.9182 26.9701 31.0772 27.0874 31.1944C27.2046 31.3116 27.3635 31.3775 27.5293 31.3775C27.6951 31.3775 27.8541 31.3116 27.9713 31.1944L33.2745 25.891C33.3884 25.7731 33.4514 25.6152 33.45 25.4514C33.4485 25.2875 33.3828 25.1307 33.2669 25.0148C33.151 24.899 32.9943 24.8332 32.8304 24.8318C32.6665 24.8304 32.5087 24.8934 32.3908 25.0072L27.0874 30.3105Z" fill="#1864AE"/>
</g>
<defs>
<clipPath id="clip0">
<rect width="40" height="40" fill="white" transform="translate(0 0.000244141)"/>
</clipPath>
</defs>
</svg>
