<svg width="40" height="40" viewBox="0 0 40 40" fill="none" xmlns="http://www.w3.org/2000/svg">
<g clip-path="url(#clip0)">
<path d="M9.03218 8.06471H2.58057V4.19375C2.58057 3.83746 2.86944 3.54858 3.22573 3.54858H8.38702C8.7433 3.54858 9.03218 3.83746 9.03218 4.19375V8.06471Z" fill="#3F8DCD"/>
<path d="M16.5224 26.2583C15.0537 25.1664 14.1896 23.4429 14.1934 21.613C14.1934 21.4195 14.1997 21.2258 14.2192 21.0324C14.2372 20.862 14.1868 20.6915 14.0791 20.5586C13.9716 20.4253 13.8154 20.3406 13.645 20.3226C13.2899 20.2911 12.9746 20.5491 12.9352 20.9032C12.916 21.1357 12.9031 21.3742 12.9031 21.613C12.8962 23.8499 13.9521 25.9571 15.7484 27.2906C15.8589 27.3759 15.9953 27.4213 16.1352 27.4194C16.3381 27.4182 16.5287 27.3227 16.6515 27.1614C16.8654 26.8763 16.8074 26.4718 16.5224 26.2583ZM19.4193 27.3936C19.0255 27.3501 18.6368 27.2704 18.2578 27.1548C17.9311 27.082 17.6032 27.2714 17.5024 27.5905C17.4016 27.9096 17.5616 28.2526 17.871 28.3809C18.3328 28.527 18.8085 28.6266 19.2901 28.6776H19.3547C19.6855 28.6748 19.9624 28.4256 19.9999 28.097C20.0336 27.7423 19.7737 27.4276 19.4193 27.3936ZM19.4193 27.3936C19.0255 27.3501 18.6368 27.2704 18.2578 27.1548C17.9311 27.082 17.6032 27.2714 17.5024 27.5905C17.4016 27.9096 17.5616 28.2526 17.871 28.3809C18.3328 28.527 18.8085 28.6266 19.2901 28.6776H19.3547C19.6855 28.6748 19.9624 28.4256 19.9999 28.097C20.0336 27.7423 19.7737 27.4276 19.4193 27.3936ZM14.1934 21.613C14.1934 21.4195 14.1997 21.2258 14.2192 21.0324C14.2372 20.862 14.1868 20.6915 14.0791 20.5586C13.9716 20.4253 13.8154 20.3406 13.645 20.3226C13.2899 20.2911 12.9746 20.5491 12.9352 20.9032C12.916 21.1357 12.9031 21.3742 12.9031 21.613C12.8962 23.8499 13.9521 25.9571 15.7484 27.2906C15.8589 27.3759 15.9953 27.4213 16.1352 27.4194C16.3381 27.4182 16.5287 27.3227 16.6515 27.1614C16.8654 26.8763 16.8074 26.4718 16.5224 26.2583C15.0537 25.1664 14.1896 23.4429 14.1934 21.613ZM36.7741 6.77426H3.22567C3.00767 6.77237 2.79062 6.80041 2.5805 6.85805C1.44076 7.15071 0.644075 8.1783 0.64502 9.3549V35.8065C0.64502 37.2317 1.80051 38.3872 3.22567 38.3872H36.7741C38.1992 38.3872 39.3547 37.2317 39.3547 35.8065V9.3549C39.3547 7.92975 38.1992 6.77426 36.7741 6.77426ZM19.9999 29.3549C15.7241 29.3549 12.2579 25.8887 12.2579 21.613C12.2579 17.3372 15.7241 13.871 19.9999 13.871C24.2756 13.871 27.7418 17.3372 27.7418 21.613C27.7383 25.8872 24.2741 29.3514 19.9999 29.3549ZM33.5483 11.9355C33.5483 11.223 34.126 10.6452 34.8386 10.6452C35.5511 10.6452 36.1289 11.223 36.1289 11.9355C36.1289 12.6481 35.5511 13.2259 34.8386 13.2259C34.1269 13.2237 33.5505 12.6475 33.5483 11.9355ZM36.7741 30.0001V31.9355H32.9031V30.0001H36.7741ZM10.3224 7.41942H29.6773V15.2067C27.5304 11.956 23.8954 10.0004 19.9999 10.0004C16.1043 10.0004 12.4693 11.956 10.3224 15.2067V7.41942ZM29.6773 37.742H10.3224V28.0195C12.4693 31.2699 16.1043 33.2256 19.9999 33.2256C23.8954 33.2256 27.5304 31.2699 29.6773 28.0195V37.742ZM19.4193 27.3936C19.0255 27.3501 18.6368 27.2704 18.2578 27.1548C17.9311 27.082 17.6032 27.2714 17.5024 27.5905C17.4016 27.9096 17.5616 28.2526 17.871 28.3809C18.3328 28.527 18.8085 28.6266 19.2901 28.6776H19.3547C19.6855 28.6748 19.9624 28.4256 19.9999 28.097C20.0336 27.7423 19.7737 27.4276 19.4193 27.3936ZM14.1934 21.613C14.1934 21.4195 14.1997 21.2258 14.2192 21.0324C14.2372 20.862 14.1868 20.6915 14.0791 20.5586C13.9716 20.4253 13.8154 20.3406 13.645 20.3226C13.2899 20.2911 12.9746 20.5491 12.9352 20.9032C12.916 21.1357 12.9031 21.3742 12.9031 21.613C12.8962 23.8499 13.9521 25.9571 15.7484 27.2906C15.8589 27.3759 15.9953 27.4213 16.1352 27.4194C16.3381 27.4182 16.5287 27.3227 16.6515 27.1614C16.8654 26.8763 16.8074 26.4718 16.5224 26.2583C15.0537 25.1664 14.1896 23.4429 14.1934 21.613ZM16.5224 26.2583C15.0537 25.1664 14.1896 23.4429 14.1934 21.613C14.1934 21.4195 14.1997 21.2258 14.2192 21.0324C14.2372 20.862 14.1868 20.6915 14.0791 20.5586C13.9716 20.4253 13.8154 20.3406 13.645 20.3226C13.2899 20.2911 12.9746 20.5491 12.9352 20.9032C12.916 21.1357 12.9031 21.3742 12.9031 21.613C12.8962 23.8499 13.9521 25.9571 15.7484 27.2906C15.8589 27.3759 15.9953 27.4213 16.1352 27.4194C16.3381 27.4182 16.5287 27.3227 16.6515 27.1614C16.8654 26.8763 16.8074 26.4718 16.5224 26.2583ZM19.4193 27.3936C19.0255 27.3501 18.6368 27.2704 18.2578 27.1548C17.9311 27.082 17.6032 27.2714 17.5024 27.5905C17.4016 27.9096 17.5616 28.2526 17.871 28.3809C18.3328 28.527 18.8085 28.6266 19.2901 28.6776H19.3547C19.6855 28.6748 19.9624 28.4256 19.9999 28.097C20.0336 27.7423 19.7737 27.4276 19.4193 27.3936ZM19.4193 27.3936C19.0255 27.3501 18.6368 27.2704 18.2578 27.1548C17.9311 27.082 17.6032 27.2714 17.5024 27.5905C17.4016 27.9096 17.5616 28.2526 17.871 28.3809C18.3328 28.527 18.8085 28.6266 19.2901 28.6776H19.3547C19.6855 28.6748 19.9624 28.4256 19.9999 28.097C20.0336 27.7423 19.7737 27.4276 19.4193 27.3936ZM16.5224 26.2583C15.0537 25.1664 14.1896 23.4429 14.1934 21.613C14.1934 21.4195 14.1997 21.2258 14.2192 21.0324C14.2372 20.862 14.1868 20.6915 14.0791 20.5586C13.9716 20.4253 13.8154 20.3406 13.645 20.3226C13.2899 20.2911 12.9746 20.5491 12.9352 20.9032C12.916 21.1357 12.9031 21.3742 12.9031 21.613C12.8962 23.8499 13.9521 25.9571 15.7484 27.2906C15.8589 27.3759 15.9953 27.4213 16.1352 27.4194C16.3381 27.4182 16.5287 27.3227 16.6515 27.1614C16.8654 26.8763 16.8074 26.4718 16.5224 26.2583Z" fill="#3F8DCD"/>
<path d="M16.5223 26.2584C15.0537 25.1665 14.1896 23.4431 14.1934 21.6131C14.1934 21.4197 14.1997 21.226 14.2192 21.0325C14.2372 20.8621 14.1868 20.6917 14.079 20.5587C13.9716 20.4255 13.8154 20.3408 13.6449 20.3228C13.2899 20.2913 12.9746 20.5493 12.9352 20.9034C12.916 21.1359 12.9031 21.3743 12.9031 21.6131C12.8961 23.8501 13.9521 25.9572 15.7483 27.2907C15.8589 27.3761 15.9953 27.4215 16.1352 27.4196C16.338 27.4183 16.5286 27.3229 16.6515 27.1616C16.8654 26.8765 16.8074 26.472 16.5223 26.2584ZM19.4192 27.3937C19.0255 27.3503 18.6367 27.2706 18.2578 27.155C17.9311 27.0822 17.6032 27.2715 17.5023 27.5906C17.4015 27.9097 17.5616 28.2528 17.8709 28.381C18.3327 28.5272 18.8084 28.6267 19.2901 28.6778H19.3547C19.6854 28.6749 19.9623 28.4257 19.9998 28.0972C20.0335 27.7425 19.7736 27.4278 19.4192 27.3937ZM19.4192 27.3937C19.0255 27.3503 18.6367 27.2706 18.2578 27.155C17.9311 27.0822 17.6032 27.2715 17.5023 27.5906C17.4015 27.9097 17.5616 28.2528 17.8709 28.381C18.3327 28.5272 18.8084 28.6267 19.2901 28.6778H19.3547C19.6854 28.6749 19.9623 28.4257 19.9998 28.0972C20.0335 27.7425 19.7736 27.4278 19.4192 27.3937ZM14.1934 21.6131C14.1934 21.4197 14.1997 21.226 14.2192 21.0325C14.2372 20.8621 14.1868 20.6917 14.079 20.5587C13.9716 20.4255 13.8154 20.3408 13.6449 20.3228C13.2899 20.2913 12.9746 20.5493 12.9352 20.9034C12.916 21.1359 12.9031 21.3743 12.9031 21.6131C12.8961 23.8501 13.9521 25.9572 15.7483 27.2907C15.8589 27.3761 15.9953 27.4215 16.1352 27.4196C16.338 27.4183 16.5286 27.3229 16.6515 27.1616C16.8654 26.8765 16.8074 26.472 16.5223 26.2584C15.0537 25.1665 14.1896 23.4431 14.1934 21.6131ZM9.67725 6.77441V38.3873H30.3224V6.77441H9.67725ZM10.3224 7.41958H29.6772V15.2069C27.5304 11.9562 23.8954 10.0005 19.9998 10.0005C16.1043 10.0005 12.4693 11.9562 10.3224 15.2069V7.41958ZM19.9998 29.3551C15.7241 29.3551 12.2579 25.8889 12.2579 21.6131C12.2579 17.3374 15.7241 13.8712 19.9998 13.8712C24.2756 13.8712 27.7418 17.3374 27.7418 21.6131C27.7383 25.8873 24.274 29.3516 19.9998 29.3551ZM29.6772 37.7421H10.3224V28.0197C12.4693 31.2701 16.1043 33.2257 19.9998 33.2257C23.8954 33.2257 27.5304 31.2701 29.6772 28.0197V37.7421ZM19.4192 27.3937C19.0255 27.3503 18.6367 27.2706 18.2578 27.155C17.9311 27.0822 17.6032 27.2715 17.5023 27.5906C17.4015 27.9097 17.5616 28.2528 17.8709 28.381C18.3327 28.5272 18.8084 28.6267 19.2901 28.6778H19.3547C19.6854 28.6749 19.9623 28.4257 19.9998 28.0972C20.0335 27.7425 19.7736 27.4278 19.4192 27.3937ZM14.1934 21.6131C14.1934 21.4197 14.1997 21.226 14.2192 21.0325C14.2372 20.8621 14.1868 20.6917 14.079 20.5587C13.9716 20.4255 13.8154 20.3408 13.6449 20.3228C13.2899 20.2913 12.9746 20.5493 12.9352 20.9034C12.916 21.1359 12.9031 21.3743 12.9031 21.6131C12.8961 23.8501 13.9521 25.9572 15.7483 27.2907C15.8589 27.3761 15.9953 27.4215 16.1352 27.4196C16.338 27.4183 16.5286 27.3229 16.6515 27.1616C16.8654 26.8765 16.8074 26.472 16.5223 26.2584C15.0537 25.1665 14.1896 23.4431 14.1934 21.6131ZM16.5223 26.2584C15.0537 25.1665 14.1896 23.4431 14.1934 21.6131C14.1934 21.4197 14.1997 21.226 14.2192 21.0325C14.2372 20.8621 14.1868 20.6917 14.079 20.5587C13.9716 20.4255 13.8154 20.3408 13.6449 20.3228C13.2899 20.2913 12.9746 20.5493 12.9352 20.9034C12.916 21.1359 12.9031 21.3743 12.9031 21.6131C12.8961 23.8501 13.9521 25.9572 15.7483 27.2907C15.8589 27.3761 15.9953 27.4215 16.1352 27.4196C16.338 27.4183 16.5286 27.3229 16.6515 27.1616C16.8654 26.8765 16.8074 26.472 16.5223 26.2584ZM19.4192 27.3937C19.0255 27.3503 18.6367 27.2706 18.2578 27.155C17.9311 27.0822 17.6032 27.2715 17.5023 27.5906C17.4015 27.9097 17.5616 28.2528 17.8709 28.381C18.3327 28.5272 18.8084 28.6267 19.2901 28.6778H19.3547C19.6854 28.6749 19.9623 28.4257 19.9998 28.0972C20.0335 27.7425 19.7736 27.4278 19.4192 27.3937ZM19.4192 27.3937C19.0255 27.3503 18.6367 27.2706 18.2578 27.155C17.9311 27.0822 17.6032 27.2715 17.5023 27.5906C17.4015 27.9097 17.5616 28.2528 17.8709 28.381C18.3327 28.5272 18.8084 28.6267 19.2901 28.6778H19.3547C19.6854 28.6749 19.9623 28.4257 19.9998 28.0972C20.0335 27.7425 19.7736 27.4278 19.4192 27.3937ZM16.5223 26.2584C15.0537 25.1665 14.1896 23.4431 14.1934 21.6131C14.1934 21.4197 14.1997 21.226 14.2192 21.0325C14.2372 20.8621 14.1868 20.6917 14.079 20.5587C13.9716 20.4255 13.8154 20.3408 13.6449 20.3228C13.2899 20.2913 12.9746 20.5493 12.9352 20.9034C12.916 21.1359 12.9031 21.3743 12.9031 21.6131C12.8961 23.8501 13.9521 25.9572 15.7483 27.2907C15.8589 27.3761 15.9953 27.4215 16.1352 27.4196C16.338 27.4183 16.5286 27.3229 16.6515 27.1616C16.8654 26.8765 16.8074 26.472 16.5223 26.2584Z" fill="#57A4FF"/>
<path d="M25.6386 2.45194C25.4474 1.94759 24.9648 1.61398 24.4255 1.61304H15.574C15.0347 1.61398 14.5521 1.94759 14.3609 2.45194L12.2578 6.77433H27.7417L25.6386 2.45194ZM14.9676 2.67749C15.0631 2.42547 15.3044 2.25851 15.574 2.2582H24.4255C24.7165 2.26639 24.9704 2.45792 25.0577 2.73577L26.7094 6.12917H13.2901L14.9676 2.67749Z" fill="#57A4FF"/>
<path d="M16.5221 26.2583C16.8072 26.4719 16.8652 26.8764 16.6513 27.1615C16.5284 27.3228 16.3378 27.4182 16.135 27.4195C15.9951 27.4214 15.8587 27.376 15.7481 27.2906C13.9519 25.9571 12.8959 23.85 12.9029 21.613C12.9029 21.3742 12.9158 21.1357 12.935 20.9033C12.9744 20.5492 13.2897 20.2912 13.6447 20.3227C13.8152 20.3406 13.9714 20.4254 14.0788 20.5586C14.1866 20.6916 14.237 20.862 14.219 21.0324C14.1995 21.2258 14.1932 21.4196 14.1932 21.613C14.1894 23.443 15.0535 25.1664 16.5221 26.2583Z" fill="#57A4FF"/>
<path d="M19.9997 28.0972C19.9622 28.4257 19.6853 28.6749 19.3546 28.6777H19.29C18.8083 28.6267 18.3326 28.5272 17.8708 28.381C17.5615 28.2528 17.4014 27.9097 17.5022 27.5906C17.6031 27.2715 17.931 27.0822 18.2577 27.1549C18.6366 27.2705 19.0254 27.3502 19.4191 27.3937C19.7735 27.4277 20.0334 27.7424 19.9997 28.0972Z" fill="#57A4FF"/>
<path d="M30.3226 17.897C28.3938 12.5096 22.6642 9.49326 17.1312 10.9524C11.5982 12.4116 8.10112 17.8611 9.07988 23.499C10.0587 29.137 15.1881 33.0889 20.889 32.5975C26.5903 32.1063 30.9678 27.3354 30.9678 21.613C30.9687 20.3463 30.7504 19.0891 30.3226 17.897ZM20.0001 29.355C15.7243 29.355 12.2581 25.8888 12.2581 21.613C12.2581 17.3373 15.7243 13.8711 20.0001 13.8711C24.2758 13.8711 27.742 17.3373 27.742 21.613C27.7385 25.8872 24.2743 29.3515 20.0001 29.355Z" fill="#3F8DCD"/>
<path d="M16.5221 26.2583C16.8072 26.4719 16.8652 26.8764 16.6513 27.1615C16.5284 27.3228 16.3378 27.4182 16.135 27.4195C15.9951 27.4214 15.8587 27.376 15.7481 27.2906C13.9519 25.9571 12.8959 23.85 12.9029 21.613C12.9029 21.3742 12.9158 21.1357 12.935 20.9033C12.9744 20.5492 13.2897 20.2912 13.6447 20.3227C13.8152 20.3406 13.9714 20.4254 14.0788 20.5586C14.1866 20.6916 14.237 20.862 14.219 21.0324C14.1995 21.2258 14.1932 21.4196 14.1932 21.613C14.1894 23.443 15.0535 25.1664 16.5221 26.2583Z" fill="#57A4FF"/>
<path d="M19.9997 28.0972C19.9622 28.4257 19.6853 28.6749 19.3546 28.6777H19.29C18.8083 28.6267 18.3326 28.5272 17.8708 28.381C17.5615 28.2528 17.4014 27.9097 17.5022 27.5906C17.6031 27.2715 17.931 27.0822 18.2577 27.1549C18.6366 27.2705 19.0254 27.3502 19.4191 27.3937C19.7735 27.4277 20.0334 27.7424 19.9997 28.0972Z" fill="#57A4FF"/>
<path d="M19.9999 13.2258C15.3678 13.2258 11.6128 16.9809 11.6128 21.6129C11.6128 26.245 15.3678 30 19.9999 30C24.6319 30 28.387 26.245 28.387 21.6129C28.387 16.9809 24.6319 13.2258 19.9999 13.2258ZM19.9999 29.3549C15.7241 29.3549 12.258 25.8887 12.258 21.6129C12.258 17.3372 15.7241 13.871 19.9999 13.871C24.2757 13.871 27.7418 17.3372 27.7418 21.6129C27.7384 25.8871 24.2741 29.3514 19.9999 29.3549Z" fill="#57A4FF"/>
<path d="M32.2578 29.355V32.5808H37.4191V29.355H32.2578ZM36.7739 31.9356H32.903V30.0001H36.7739V31.9356Z" fill="#57A4FF"/>
<path d="M34.8383 10.0002C33.7695 10.0002 32.9028 10.8669 32.9028 11.9357C32.9028 13.0046 33.7695 13.8712 34.8383 13.8712C35.9072 13.8712 36.7738 13.0046 36.7738 11.9357C36.7738 10.8669 35.9072 10.0002 34.8383 10.0002ZM34.8383 13.2261C34.1257 13.2261 33.548 12.6483 33.548 11.9357C33.548 11.2232 34.1257 10.6454 34.8383 10.6454C35.5509 10.6454 36.1286 11.2232 36.1286 11.9357C36.1264 12.6477 35.5499 13.2238 34.8383 13.2261Z" fill="#57A4FF"/>
<path d="M16.6513 27.1615C16.5284 27.3228 16.3378 27.4182 16.135 27.4195C15.9951 27.4214 15.8587 27.376 15.7481 27.2906C13.9519 25.9571 12.8959 23.85 12.9029 21.613C12.9029 21.3742 12.9158 21.1357 12.935 20.9033C12.9744 20.5492 13.2897 20.2912 13.6447 20.3227C13.8152 20.3406 13.9714 20.4254 14.0788 20.5586C14.1866 20.6916 14.237 20.862 14.219 21.0324C14.1995 21.2258 14.1932 21.4196 14.1932 21.613C14.1894 23.443 15.0535 25.1664 16.5221 26.2583C16.8072 26.4719 16.8652 26.8764 16.6513 27.1615Z" fill="#57A4FF"/>
<path d="M19.9997 28.0972C19.9622 28.4257 19.6853 28.6749 19.3546 28.6777H19.29C18.8083 28.6267 18.3326 28.5272 17.8708 28.381C17.5615 28.2528 17.4014 27.9097 17.5022 27.5906C17.6031 27.2715 17.931 27.0822 18.2577 27.1549C18.6366 27.2705 19.0254 27.3502 19.4191 27.3937C19.7735 27.4277 20.0334 27.7424 19.9997 28.0972Z" fill="#57A4FF"/>
<path d="M36.7742 6.12935H28.142L26.2387 2.22625C25.9561 1.46957 25.2334 0.968062 24.4257 0.968062H15.5743C14.787 0.962707 14.076 1.43839 13.7806 2.16797L11.8517 6.12935H9.67742V4.19387C9.67521 3.48224 9.09873 2.90575 8.3871 2.90355H3.22581C2.51418 2.90575 1.93769 3.48224 1.93548 4.19387V6.40027C0.762034 6.91501 0.0031502 8.07397 0 9.35516V35.8068C0 37.5885 1.44437 39.0326 3.22581 39.0326H36.7742C38.5556 39.0326 40 37.5885 40 35.8068V9.35516C40 7.57372 38.5556 6.12935 36.7742 6.12935ZM38.7097 35.8068C38.7065 36.8744 37.8418 37.7391 36.7742 37.7423H30.9677V25.3938C31.8281 22.947 31.8281 20.2797 30.9677 17.8327V7.41968H36.7742C37.8418 7.42283 38.7065 8.28756 38.7097 9.35516V35.8068ZM1.29032 9.35516C1.29253 8.53705 1.80916 7.80873 2.58065 7.53592C2.78667 7.45779 3.00529 7.41842 3.22581 7.41968H9.03226V17.8327C8.17194 20.2797 8.17194 22.947 9.03226 25.3938V37.7423H3.22581C2.1582 37.7391 1.29347 36.8744 1.29032 35.8068V9.35516ZM10.3226 7.41968H29.6774V15.207C27.5306 11.9563 23.8955 10.0006 20 10.0006C16.1045 10.0006 12.4694 11.9563 10.3226 15.207V7.41968ZM20 31.9358C14.2991 31.9358 9.67742 27.3141 9.67742 21.6132C9.67742 15.9123 14.2991 11.2906 20 11.2906C25.7009 11.2906 30.3226 15.9123 30.3226 21.6132C30.315 27.3113 25.6978 31.9283 20 31.9358ZM8.3871 6.12935H3.22581V4.19387H8.3871V6.12935ZM29.6774 37.7423H10.3226V28.0198C12.4694 31.2702 16.1045 33.2258 20 33.2258C23.8955 33.2258 27.5306 31.2702 29.6774 28.0198V37.7423ZM15.5743 2.25839H24.4257C24.7168 2.26658 24.9707 2.45811 25.058 2.73596L26.7096 6.12935H13.2904L14.9679 2.67768C15.0633 2.42566 15.3046 2.2587 15.5743 2.25839Z" fill="#002B53"/>
<path d="M20 12.5808C15.0117 12.5808 10.9678 16.6247 10.9678 21.6131C10.9678 26.6014 15.0117 30.6453 20 30.6453C24.9884 30.6453 29.0323 26.6014 29.0323 21.6131C29.0269 16.6269 24.9862 12.5862 20 12.5808ZM20 29.355C15.7243 29.355 12.2581 25.8888 12.2581 21.6131C12.2581 17.3373 15.7243 13.8711 20 13.8711C24.2758 13.8711 27.742 17.3373 27.742 21.6131C27.7385 25.8873 24.2742 29.3515 20 29.355Z" fill="#002B53"/>
<path d="M16.6518 27.1617C16.5289 27.323 16.3383 27.4184 16.1355 27.4197C15.9956 27.4216 15.8592 27.3762 15.7486 27.2909C13.9524 25.9574 12.8964 23.8502 12.9034 21.6132C12.9034 21.3745 12.9163 21.136 12.9355 20.9035C12.9749 20.5494 13.2902 20.2914 13.6452 20.3229C13.8157 20.3409 13.9719 20.4256 14.0793 20.5589C14.1871 20.6918 14.2375 20.8622 14.2195 21.0327C14.2 21.2261 14.1937 21.4198 14.1937 21.6132C14.1899 23.4432 15.054 25.1667 16.5226 26.2585C16.8077 26.4721 16.8657 26.8766 16.6518 27.1617Z" fill="#002B53"/>
<path d="M20.0002 28.0972C19.9627 28.4257 19.6858 28.6749 19.3551 28.6777H19.2905C18.8088 28.6267 18.3331 28.5272 17.8713 28.381C17.562 28.2528 17.4019 27.9097 17.5027 27.5906C17.6035 27.2715 17.9315 27.0822 18.2582 27.1549C18.6371 27.2705 19.0259 27.3502 19.4196 27.3937C19.774 27.4277 20.0339 27.7424 20.0002 28.0972Z" fill="#002B53"/>
<path d="M37.4192 28.71H32.258C31.9017 28.71 31.6128 28.9988 31.6128 29.3551V32.5809C31.6128 32.9372 31.9017 33.2261 32.258 33.2261H37.4192C37.7755 33.2261 38.0644 32.9372 38.0644 32.5809V29.3551C38.0644 28.9988 37.7755 28.71 37.4192 28.71ZM36.7741 31.9358H32.9031V30.0003H36.7741V31.9358Z" fill="#002B53"/>
<path d="M34.8389 9.35498C33.4138 9.35498 32.2583 10.5105 32.2583 11.9356C32.2583 13.3608 33.4138 14.5163 34.8389 14.5163C36.2641 14.5163 37.4196 13.3608 37.4196 11.9356C37.4196 10.5105 36.2641 9.35498 34.8389 9.35498ZM34.8389 13.2259C34.1264 13.2259 33.5486 12.6482 33.5486 11.9356C33.5486 11.223 34.1264 10.6453 34.8389 10.6453C35.5515 10.6453 36.1293 11.223 36.1293 11.9356C36.1271 12.6476 35.5506 13.2237 34.8389 13.2259Z" fill="#002B53"/>
</g>
<defs>
<clipPath id="clip0">
<rect width="40" height="40" fill="white" transform="translate(0 0.000244141)"/>
</clipPath>
</defs>
</svg>
