<svg width="45" height="45" viewBox="0 0 45 45" fill="none" xmlns="http://www.w3.org/2000/svg">
<path d="M1.40625 4.92212H43.5938V7.73462H1.40625V4.92212Z" fill="#3F8DCD"/>
<path d="M8.4375 21.094H11.25V26.719H8.4375V21.094Z" fill="#57A4FF"/>
<path d="M19.6875 21.094V26.719H14.0625V19.6877H16.875V21.094H19.6875Z" fill="#57A4FF"/>
<path d="M23.2031 14.7659H37.9688V18.2815H23.2031V14.7659Z" fill="#57A4FF"/>
<path d="M22.5 40.0784C23.2767 40.0784 23.9062 39.4488 23.9062 38.6721C23.9062 37.8955 23.2767 37.2659 22.5 37.2659C21.7233 37.2659 21.0938 37.8955 21.0938 38.6721C21.0938 39.4488 21.7233 40.0784 22.5 40.0784Z" fill="#3F8DCD"/>
<path d="M8.4375 21.094H11.25V26.719H8.4375V21.094Z" fill="#3F8DCD"/>
<path d="M16.875 21.094H19.6875V26.719H16.875V21.094Z" fill="#3F8DCD"/>
<path d="M14.0625 19.6877H16.875V26.719H14.0625V19.6877Z" fill="#3F8DCD"/>
<path d="M23.2031 14.7659H37.9688V18.2815H23.2031V14.7659Z" fill="#3F8DCD"/>
<path d="M43.5938 4.21899H1.40625C1.21977 4.21899 1.04093 4.29307 0.909066 4.42493C0.777204 4.5568 0.703125 4.73564 0.703125 4.92212V7.73462C0.703125 7.9211 0.777204 8.09994 0.909066 8.2318C1.04093 8.36367 1.21977 8.43774 1.40625 8.43774H3.51562V32.6956C3.51635 33.348 3.77585 33.9735 4.23721 34.4349C4.69857 34.8963 5.3241 35.1558 5.97656 35.1565H21.7969V36.684C21.3277 36.8499 20.9323 37.1763 20.6806 37.6055C20.4288 38.0347 20.3369 38.539 20.421 39.0295C20.5051 39.5199 20.76 39.9648 21.1404 40.2855C21.5208 40.6062 22.0024 40.7821 22.5 40.7821C22.9976 40.7821 23.4792 40.6062 23.8596 40.2855C24.24 39.9648 24.4949 39.5199 24.579 39.0295C24.6631 38.539 24.5712 38.0347 24.3194 37.6055C24.0677 37.1763 23.6723 36.8499 23.2031 36.684V35.1565H39.0234C39.6759 35.1558 40.3014 34.8963 40.7628 34.4349C41.2241 33.9735 41.4837 33.348 41.4844 32.6956V8.43774H43.5938C43.7802 8.43774 43.9591 8.36367 44.0909 8.2318C44.2228 8.09994 44.2969 7.9211 44.2969 7.73462V4.92212C44.2969 4.73564 44.2228 4.5568 44.0909 4.42493C43.9591 4.29307 43.7802 4.21899 43.5938 4.21899ZM22.5 39.3752C22.3609 39.3752 22.225 39.334 22.1094 39.2567C21.9937 39.1795 21.9036 39.0697 21.8504 38.9412C21.7972 38.8127 21.7833 38.6713 21.8104 38.5349C21.8375 38.3986 21.9045 38.2733 22.0028 38.1749C22.1011 38.0766 22.2264 38.0096 22.3628 37.9825C22.4992 37.9554 22.6406 37.9693 22.7691 38.0225C22.8976 38.0757 23.0074 38.1659 23.0846 38.2815C23.1619 38.3971 23.2031 38.5331 23.2031 38.6721C23.2029 38.8585 23.1287 39.0372 22.9969 39.169C22.8651 39.3008 22.6864 39.375 22.5 39.3752V39.3752ZM40.0781 32.6956C40.0779 32.9752 39.9667 33.2433 39.769 33.4411C39.5712 33.6388 39.3031 33.75 39.0234 33.7502H5.97656C5.69691 33.75 5.42878 33.6388 5.23104 33.4411C5.0333 33.2433 4.92211 32.9752 4.92188 32.6956V8.43774H40.0781V32.6956ZM42.8906 7.03149H2.10938V5.62524H42.8906V7.03149Z" fill="#002B53"/>
<path d="M19.6875 20.3909H17.5781V19.6877C17.5781 19.5013 17.504 19.3224 17.3722 19.1906C17.2403 19.0587 17.0615 18.9846 16.875 18.9846H14.7656V15.469C14.7656 15.2825 14.6915 15.1037 14.5597 14.9718C14.4278 14.8399 14.249 14.7659 14.0625 14.7659H11.25C11.0635 14.7659 10.8847 14.8399 10.7528 14.9718C10.621 15.1037 10.5469 15.2825 10.5469 15.469V20.3909H8.4375C8.25102 20.3909 8.07218 20.4649 7.94032 20.5968C7.80845 20.7287 7.73438 20.9075 7.73438 21.094V26.719C7.73438 26.9055 7.80845 27.0843 7.94032 27.2162C8.07218 27.348 8.25102 27.4221 8.4375 27.4221H19.6875C19.874 27.4221 20.0528 27.348 20.1847 27.2162C20.3165 27.0843 20.3906 26.9055 20.3906 26.719V21.094C20.3906 20.9075 20.3165 20.7287 20.1847 20.5968C20.0528 20.4649 19.874 20.3909 19.6875 20.3909ZM10.5469 26.0159H9.14062V21.7971H10.5469V26.0159ZM13.3594 26.0159H11.9531V16.1721H13.3594V26.0159ZM16.1719 26.0159H14.7656V20.3909H16.1719V26.0159ZM18.9844 26.0159H17.5781V21.7971H18.9844V26.0159Z" fill="#002B53"/>
<path d="M23.2031 18.9846H37.9688C38.1552 18.9846 38.3341 18.9105 38.4659 18.7787C38.5978 18.6468 38.6719 18.468 38.6719 18.2815V14.7659C38.6719 14.5794 38.5978 14.4005 38.4659 14.2687C38.3341 14.1368 38.1552 14.0627 37.9688 14.0627H23.2031C23.0166 14.0627 22.8378 14.1368 22.7059 14.2687C22.5741 14.4005 22.5 14.5794 22.5 14.7659V18.2815C22.5 18.468 22.5741 18.6468 22.7059 18.7787C22.8378 18.9105 23.0166 18.9846 23.2031 18.9846ZM23.9062 15.469H37.2656V17.5784H23.9062V15.469Z" fill="#002B53"/>
<path d="M23.2031 21.094H37.9688C38.1552 21.094 38.3341 21.0199 38.4659 20.8881C38.5978 20.7562 38.6719 20.5773 38.6719 20.3909C38.6719 20.2044 38.5978 20.0255 38.4659 19.8937C38.3341 19.7618 38.1552 19.6877 37.9688 19.6877H23.2031C23.0166 19.6877 22.8378 19.7618 22.7059 19.8937C22.5741 20.0255 22.5 20.2044 22.5 20.3909C22.5 20.5773 22.5741 20.7562 22.7059 20.8881C22.8378 21.0199 23.0166 21.094 23.2031 21.094Z" fill="#002B53"/>
<path d="M23.2031 23.2034H37.9688C38.1552 23.2034 38.3341 23.1293 38.4659 22.9974C38.5978 22.8656 38.6719 22.6867 38.6719 22.5002C38.6719 22.3138 38.5978 22.1349 38.4659 22.0031C38.3341 21.8712 38.1552 21.7971 37.9688 21.7971H23.2031C23.0166 21.7971 22.8378 21.8712 22.7059 22.0031C22.5741 22.1349 22.5 22.3138 22.5 22.5002C22.5 22.6867 22.5741 22.8656 22.7059 22.9974C22.8378 23.1293 23.0166 23.2034 23.2031 23.2034Z" fill="#002B53"/>
<path d="M23.2031 25.3127H37.9688C38.1552 25.3127 38.3341 25.2387 38.4659 25.1068C38.5978 24.9749 38.6719 24.7961 38.6719 24.6096C38.6719 24.4231 38.5978 24.2443 38.4659 24.1124C38.3341 23.9806 38.1552 23.9065 37.9688 23.9065H23.2031C23.0166 23.9065 22.8378 23.9806 22.7059 24.1124C22.5741 24.2443 22.5 24.4231 22.5 24.6096C22.5 24.7961 22.5741 24.9749 22.7059 25.1068C22.8378 25.2387 23.0166 25.3127 23.2031 25.3127Z" fill="#002B53"/>
<path d="M23.2031 27.4221H30.9375C31.124 27.4221 31.3028 27.348 31.4347 27.2162C31.5665 27.0843 31.6406 26.9055 31.6406 26.719C31.6406 26.5325 31.5665 26.3537 31.4347 26.2218C31.3028 26.0899 31.124 26.0159 30.9375 26.0159H23.2031C23.0166 26.0159 22.8378 26.0899 22.7059 26.2218C22.5741 26.3537 22.5 26.5325 22.5 26.719C22.5 26.9055 22.5741 27.0843 22.7059 27.2162C22.8378 27.348 23.0166 27.4221 23.2031 27.4221Z" fill="#002B53"/>
<path d="M33.75 26.0159H33.0469C32.8604 26.0159 32.6816 26.0899 32.5497 26.2218C32.4178 26.3537 32.3438 26.5325 32.3438 26.719C32.3438 26.9055 32.4178 27.0843 32.5497 27.2162C32.6816 27.348 32.8604 27.4221 33.0469 27.4221H33.75C33.9365 27.4221 34.1153 27.348 34.2472 27.2162C34.379 27.0843 34.4531 26.9055 34.4531 26.719C34.4531 26.5325 34.379 26.3537 34.2472 26.2218C34.1153 26.0899 33.9365 26.0159 33.75 26.0159Z" fill="#002B53"/>
</svg>
