<svg width="40" height="40" viewBox="0 0 40 40" fill="none" xmlns="http://www.w3.org/2000/svg">
<g clip-path="url(#clip0)">
<path d="M25.1311 25.9686L15.4341 31.7868V20.1504L25.1311 25.9686Z" fill="#57A4FF"/>
<path d="M0.647949 7.90268L38.4921 3.15015L39.0562 7.64005L1.21171 12.3929L0.647949 7.90268Z" fill="#3F8DCD"/>
<path d="M25.1311 25.9686L15.4341 31.7868V20.1504L25.1311 25.9686Z" fill="#3F8DCD"/>
<path d="M1.8584 12.3928H39.3535V16.9181H1.8584V12.3928Z" fill="#3F8DCD"/>
<path d="M39.3537 11.7464H11.5484L39.1372 8.28173C39.4913 8.23723 39.742 7.91399 39.6975 7.55983L39.1337 3.07023C39.1129 2.89977 39.0245 2.7451 38.8887 2.6403C38.7536 2.53456 38.5816 2.48784 38.4118 2.51088L0.565722 7.26121C0.211554 7.30572 -0.0393939 7.62896 0.00511383 7.98312L0.565722 12.4329V36.9586C0.565722 37.3156 0.855179 37.6051 1.21219 37.6051H39.3537C39.7107 37.6051 40.0002 37.3156 40.0002 36.9586V12.3929C40.0002 12.0358 39.7107 11.7464 39.3537 11.7464ZM38.7072 16.2717H35.7426L38.5179 13.4964C38.6391 13.3752 38.7072 13.2107 38.7072 13.0393V16.2717ZM37.1466 13.0393L34.3714 15.8146C34.2502 15.9358 34.182 16.1003 34.182 16.2717H29.2779L32.0532 13.4964C32.1744 13.3752 32.2426 13.2107 32.2426 13.0393H37.1466ZM30.682 13.0393L27.9067 15.8146C27.7855 15.9358 27.7173 16.1003 27.7173 16.2717H22.8133L25.5885 13.4964C25.7097 13.3752 25.7779 13.2107 25.7779 13.0393H30.682ZM24.2173 13.0393L21.442 15.8146C21.3208 15.9358 21.2526 16.1003 21.2526 16.2717H16.3486L19.1239 13.4964C19.2451 13.3752 19.3132 13.2107 19.3132 13.0393H24.2173ZM17.7526 13.0393L14.9774 15.8146C14.8562 15.9358 14.788 16.1003 14.788 16.2717H9.88393L12.6592 13.4964C12.7804 13.3752 12.8486 13.2107 12.8486 13.0393H17.7526ZM33.6861 4.86601L36.789 7.27353L31.9225 7.88495C31.901 7.71481 31.813 7.56014 31.6776 7.45503L28.5756 5.04688L33.4411 4.43608C33.4626 4.60622 33.5507 4.76089 33.6861 4.86601ZM27.2726 5.66967L30.3717 8.0775L25.5055 8.68862C25.4844 8.51848 25.396 8.36381 25.2606 8.25869L22.1614 5.85054L27.0267 5.23974C27.0478 5.40988 27.1365 5.56487 27.2726 5.66967ZM20.8581 6.47681L23.9572 8.88496L19.0913 9.49607C19.0705 9.32561 18.9821 9.17094 18.8464 9.06614L15.7473 6.65862L20.6131 6.0472C20.6343 6.21734 20.7223 6.37201 20.8581 6.47681ZM14.4439 7.28584L17.543 9.69367L12.6778 10.3048C12.6563 10.1343 12.568 9.97966 12.4322 9.87486L9.33311 7.46734L14.199 6.85591C14.2204 7.02605 14.3085 7.18041 14.4439 7.28584ZM8.02976 8.09108L11.1289 10.4992L6.26365 11.11C6.24219 10.9402 6.15412 10.7855 6.0187 10.6804L2.91548 8.2729L7.78134 7.66115C7.80438 7.83066 7.89371 7.98407 8.02976 8.08792V8.09108ZM1.61497 8.89348L4.71472 11.3016L1.77248 11.6706L1.37096 8.46734C1.39274 8.63622 1.4805 8.78931 1.61497 8.89348ZM1.85865 13.0393H4.82331L2.04805 15.8146C1.92684 15.9358 1.85865 16.1003 1.85865 16.2717V13.0393ZM6.19453 13.4964C6.31574 13.3752 6.38392 13.2107 6.38392 13.0393H11.288L8.51271 15.8146C8.3915 15.9358 8.32332 16.1003 8.32332 16.2717H3.41926L6.19453 13.4964ZM38.3335 7.07498C38.3111 6.90673 38.2237 6.75395 38.0898 6.64947L34.9866 4.24132L37.9314 3.87232L38.3335 7.07498ZM1.85865 36.3121V17.5646H38.7072V36.3121H1.85865Z" fill="#002B53"/>
<path d="M25.4642 25.4147L15.7673 19.5965C15.5678 19.4766 15.319 19.4731 15.1161 19.588C14.9134 19.7026 14.7881 19.9176 14.7881 20.1505V31.7869C14.7881 32.0199 14.9134 32.2348 15.1161 32.3494C15.319 32.464 15.5678 32.4608 15.7673 32.3409L25.4642 26.5227C25.6587 26.4059 25.7777 26.1954 25.7777 25.9687C25.7777 25.7418 25.6587 25.5315 25.4642 25.4147ZM16.081 30.6452V21.2919L23.8752 25.9687L16.081 30.6452Z" fill="#002B53"/>
<path d="M34.8284 34.3728H26.4243C26.0673 34.3728 25.7778 34.6623 25.7778 35.0193C25.7778 35.3763 26.0673 35.6657 26.4243 35.6657H34.8284C35.1854 35.6657 35.4748 35.3763 35.4748 35.0193C35.4748 34.6623 35.1854 34.3728 34.8284 34.3728Z" fill="#002B53"/>
<path d="M37.4145 34.3728H36.7681C36.411 34.3728 36.1216 34.6623 36.1216 35.0193C36.1216 35.3763 36.411 35.6657 36.7681 35.6657H37.4145C37.7715 35.6657 38.061 35.3763 38.061 35.0193C38.061 34.6623 37.7715 34.3728 37.4145 34.3728Z" fill="#002B53"/>
</g>
<defs>
<clipPath id="clip0">
<rect width="40" height="40" fill="white" transform="translate(0 0.000244141)"/>
</clipPath>
</defs>
</svg>
